<mxfile host="app.diagrams.net" agent="Mozilla/5.0 (Macintosh; Intel Mac OS X 10_15_7) AppleWebKit/537.36 (KHTML, like Gecko) Chrome/126.0.0.0 Safari/537.36" version="24.7.5">
  <diagram name="Page-1" id="hXJM80COfWbN2iNqjxmV">
    <mxGraphModel dx="1242" dy="758" grid="1" gridSize="10" guides="1" tooltips="1" connect="1" arrows="1" fold="1" page="1" pageScale="1" pageWidth="5700" pageHeight="1900" math="0" shadow="0">
      <root>
        <mxCell id="0" />
        <mxCell id="1" parent="0" />
        <mxCell id="COJAAfJsYOspFRxzFlZO-59" style="edgeStyle=orthogonalEdgeStyle;rounded=0;orthogonalLoop=1;jettySize=auto;html=1;endArrow=none;endFill=0;strokeColor=#007FFF;fontFamily=Helvetica;entryX=0.5;entryY=0;entryDx=0;entryDy=0;exitX=0.5;exitY=0;exitDx=0;exitDy=0;" edge="1" parent="1" source="6-QbLFjZhCQKoY5gVnMu-125" target="De0PxG4or32B9p8G-UYy-1">
          <mxGeometry relative="1" as="geometry">
            <Array as="points">
              <mxPoint x="2015" y="920" />
              <mxPoint x="2015" y="920" />
            </Array>
            <mxPoint x="2110" y="826" as="sourcePoint" />
            <mxPoint x="2110" y="971" as="targetPoint" />
          </mxGeometry>
        </mxCell>
        <mxCell id="COJAAfJsYOspFRxzFlZO-58" style="edgeStyle=orthogonalEdgeStyle;rounded=0;orthogonalLoop=1;jettySize=auto;html=1;strokeColor=#007FFF;endArrow=none;endFill=0;" edge="1" parent="1" source="COJAAfJsYOspFRxzFlZO-48" target="COJAAfJsYOspFRxzFlZO-57">
          <mxGeometry relative="1" as="geometry" />
        </mxCell>
        <mxCell id="COJAAfJsYOspFRxzFlZO-56" style="edgeStyle=orthogonalEdgeStyle;rounded=0;orthogonalLoop=1;jettySize=auto;html=1;entryX=0.5;entryY=0;entryDx=0;entryDy=0;strokeColor=#007FFF;endArrow=none;endFill=0;" edge="1" parent="1" source="COJAAfJsYOspFRxzFlZO-18" target="COJAAfJsYOspFRxzFlZO-51">
          <mxGeometry relative="1" as="geometry" />
        </mxCell>
        <mxCell id="COJAAfJsYOspFRxzFlZO-54" style="edgeStyle=orthogonalEdgeStyle;rounded=0;orthogonalLoop=1;jettySize=auto;html=1;strokeColor=#007FFF;endArrow=none;endFill=0;" edge="1" parent="1" source="COJAAfJsYOspFRxzFlZO-20" target="COJAAfJsYOspFRxzFlZO-48">
          <mxGeometry relative="1" as="geometry">
            <Array as="points">
              <mxPoint x="3124" y="702" />
              <mxPoint x="3224" y="702" />
            </Array>
          </mxGeometry>
        </mxCell>
        <mxCell id="COJAAfJsYOspFRxzFlZO-55" style="edgeStyle=orthogonalEdgeStyle;rounded=0;orthogonalLoop=1;jettySize=auto;html=1;strokeColor=#007FFF;endArrow=none;endFill=0;" edge="1" parent="1" source="COJAAfJsYOspFRxzFlZO-20" target="COJAAfJsYOspFRxzFlZO-44">
          <mxGeometry relative="1" as="geometry">
            <Array as="points">
              <mxPoint x="3124" y="702" />
              <mxPoint x="3044" y="702" />
            </Array>
          </mxGeometry>
        </mxCell>
        <mxCell id="COJAAfJsYOspFRxzFlZO-42" style="edgeStyle=orthogonalEdgeStyle;rounded=0;orthogonalLoop=1;jettySize=auto;html=1;endArrow=none;endFill=0;strokeColor=#007FFF;fontFamily=Helvetica;entryX=0.5;entryY=0;entryDx=0;entryDy=0;exitX=0.5;exitY=1;exitDx=0;exitDy=0;" edge="1" parent="1" source="COJAAfJsYOspFRxzFlZO-34" target="COJAAfJsYOspFRxzFlZO-39">
          <mxGeometry relative="1" as="geometry">
            <Array as="points">
              <mxPoint x="2541" y="936" />
            </Array>
            <mxPoint x="2368" y="801" as="sourcePoint" />
            <mxPoint x="2368" y="946" as="targetPoint" />
          </mxGeometry>
        </mxCell>
        <mxCell id="COJAAfJsYOspFRxzFlZO-37" style="edgeStyle=orthogonalEdgeStyle;rounded=0;orthogonalLoop=1;jettySize=auto;html=1;entryX=0.5;entryY=0;entryDx=0;entryDy=0;strokeColor=#007FFF;endArrow=none;endFill=0;" edge="1" parent="1" source="COJAAfJsYOspFRxzFlZO-16" target="COJAAfJsYOspFRxzFlZO-31">
          <mxGeometry relative="1" as="geometry">
            <Array as="points">
              <mxPoint x="2458" y="701" />
              <mxPoint x="2371" y="701" />
            </Array>
          </mxGeometry>
        </mxCell>
        <mxCell id="COJAAfJsYOspFRxzFlZO-38" style="edgeStyle=orthogonalEdgeStyle;rounded=0;orthogonalLoop=1;jettySize=auto;html=1;strokeColor=#007FFF;endArrow=none;endFill=0;" edge="1" parent="1" source="COJAAfJsYOspFRxzFlZO-16" target="COJAAfJsYOspFRxzFlZO-34">
          <mxGeometry relative="1" as="geometry">
            <Array as="points">
              <mxPoint x="2458" y="701" />
              <mxPoint x="2541" y="701" />
            </Array>
          </mxGeometry>
        </mxCell>
        <mxCell id="COJAAfJsYOspFRxzFlZO-26" style="edgeStyle=orthogonalEdgeStyle;rounded=0;orthogonalLoop=1;jettySize=auto;html=1;strokeColor=#007FFF;endArrow=none;endFill=0;entryX=0.5;entryY=0;entryDx=0;entryDy=0;" edge="1" parent="1" source="6-QbLFjZhCQKoY5gVnMu-19" target="COJAAfJsYOspFRxzFlZO-18">
          <mxGeometry relative="1" as="geometry">
            <Array as="points">
              <mxPoint x="2459" y="520" />
              <mxPoint x="2808" y="520" />
            </Array>
          </mxGeometry>
        </mxCell>
        <mxCell id="COJAAfJsYOspFRxzFlZO-27" style="edgeStyle=orthogonalEdgeStyle;rounded=0;orthogonalLoop=1;jettySize=auto;html=1;strokeColor=#007FFF;endArrow=none;endFill=0;entryX=0.5;entryY=0;entryDx=0;entryDy=0;" edge="1" parent="1" source="6-QbLFjZhCQKoY5gVnMu-19" target="COJAAfJsYOspFRxzFlZO-20">
          <mxGeometry relative="1" as="geometry">
            <Array as="points">
              <mxPoint x="2459" y="520" />
              <mxPoint x="3124" y="520" />
            </Array>
          </mxGeometry>
        </mxCell>
        <mxCell id="COJAAfJsYOspFRxzFlZO-28" style="edgeStyle=orthogonalEdgeStyle;rounded=0;orthogonalLoop=1;jettySize=auto;html=1;strokeColor=#007FFF;endArrow=none;endFill=0;" edge="1" parent="1" source="6-QbLFjZhCQKoY5gVnMu-104" target="COJAAfJsYOspFRxzFlZO-23">
          <mxGeometry relative="1" as="geometry">
            <Array as="points">
              <mxPoint x="1746" y="699" />
              <mxPoint x="1827" y="699" />
            </Array>
          </mxGeometry>
        </mxCell>
        <mxCell id="H0gXzPtvezBcg68c_Q4e-3" style="edgeStyle=orthogonalEdgeStyle;rounded=0;orthogonalLoop=1;jettySize=auto;html=1;strokeColor=#007FFF;endArrow=none;endFill=0;fontFamily=Helvetica;entryX=0.5;entryY=0;entryDx=0;entryDy=0;" edge="1" parent="1" target="6-QbLFjZhCQKoY5gVnMu-284">
          <mxGeometry relative="1" as="geometry">
            <mxPoint x="3899.8378378378375" y="785.75" as="sourcePoint" />
            <mxPoint x="3899.874999999999" y="933.5" as="targetPoint" />
          </mxGeometry>
        </mxCell>
        <mxCell id="De0PxG4or32B9p8G-UYy-123" style="edgeStyle=orthogonalEdgeStyle;rounded=0;orthogonalLoop=1;jettySize=auto;html=1;endArrow=none;endFill=0;strokeColor=#007FFF;fontFamily=Helvetica;" edge="1" parent="1" source="De0PxG4or32B9p8G-UYy-54">
          <mxGeometry relative="1" as="geometry">
            <mxPoint x="3723.8378378378375" y="935.0000000000002" as="targetPoint" />
          </mxGeometry>
        </mxCell>
        <mxCell id="De0PxG4or32B9p8G-UYy-90" style="edgeStyle=orthogonalEdgeStyle;rounded=0;orthogonalLoop=1;jettySize=auto;html=1;entryX=0.5;entryY=0;entryDx=0;entryDy=0;strokeColor=#007FFF;endArrow=none;endFill=0;fontFamily=Helvetica;exitX=0.446;exitY=-0.021;exitDx=0;exitDy=0;exitPerimeter=0;" edge="1" parent="1" source="6-QbLFjZhCQKoY5gVnMu-27" target="De0PxG4or32B9p8G-UYy-48">
          <mxGeometry relative="1" as="geometry">
            <Array as="points">
              <mxPoint x="3809" y="520" />
              <mxPoint x="3461" y="520" />
            </Array>
          </mxGeometry>
        </mxCell>
        <mxCell id="De0PxG4or32B9p8G-UYy-91" style="edgeStyle=orthogonalEdgeStyle;rounded=0;orthogonalLoop=1;jettySize=auto;html=1;entryX=0.5;entryY=0;entryDx=0;entryDy=0;strokeColor=#007FFF;endArrow=none;endFill=0;fontFamily=Helvetica;" edge="1" parent="1" source="6-QbLFjZhCQKoY5gVnMu-26" target="De0PxG4or32B9p8G-UYy-50">
          <mxGeometry relative="1" as="geometry">
            <Array as="points">
              <mxPoint x="3810" y="512" />
              <mxPoint x="3810" y="512" />
            </Array>
          </mxGeometry>
        </mxCell>
        <mxCell id="De0PxG4or32B9p8G-UYy-93" style="edgeStyle=orthogonalEdgeStyle;rounded=0;orthogonalLoop=1;jettySize=auto;html=1;entryX=0.5;entryY=0;entryDx=0;entryDy=0;strokeColor=#007FFF;endArrow=none;endFill=0;fontFamily=Helvetica;" edge="1" parent="1" source="6-QbLFjZhCQKoY5gVnMu-26" target="De0PxG4or32B9p8G-UYy-52">
          <mxGeometry relative="1" as="geometry">
            <Array as="points">
              <mxPoint x="3810" y="520" />
              <mxPoint x="4190" y="520" />
            </Array>
          </mxGeometry>
        </mxCell>
        <mxCell id="De0PxG4or32B9p8G-UYy-94" style="edgeStyle=orthogonalEdgeStyle;rounded=0;orthogonalLoop=1;jettySize=auto;html=1;entryX=0.5;entryY=0;entryDx=0;entryDy=0;strokeColor=#007FFF;endArrow=none;endFill=0;fontFamily=Helvetica;" edge="1" parent="1" source="De0PxG4or32B9p8G-UYy-50" target="De0PxG4or32B9p8G-UYy-54">
          <mxGeometry relative="1" as="geometry">
            <Array as="points">
              <mxPoint x="3810" y="696" />
              <mxPoint x="3723" y="696" />
              <mxPoint x="3723" y="738" />
            </Array>
          </mxGeometry>
        </mxCell>
        <mxCell id="De0PxG4or32B9p8G-UYy-95" style="edgeStyle=orthogonalEdgeStyle;rounded=0;orthogonalLoop=1;jettySize=auto;html=1;entryX=0.5;entryY=0;entryDx=0;entryDy=0;strokeColor=#007FFF;endArrow=none;endFill=0;fontFamily=Helvetica;" edge="1" parent="1" source="De0PxG4or32B9p8G-UYy-50" target="COJAAfJsYOspFRxzFlZO-3">
          <mxGeometry relative="1" as="geometry">
            <Array as="points">
              <mxPoint x="3810" y="696" />
              <mxPoint x="3893" y="696" />
              <mxPoint x="3893" y="740" />
              <mxPoint x="3901" y="740" />
            </Array>
          </mxGeometry>
        </mxCell>
        <mxCell id="De0PxG4or32B9p8G-UYy-97" style="edgeStyle=orthogonalEdgeStyle;rounded=0;orthogonalLoop=1;jettySize=auto;html=1;entryX=0.5;entryY=0;entryDx=0;entryDy=0;strokeColor=#007FFF;endArrow=none;endFill=0;fontFamily=Helvetica;" edge="1" parent="1" source="De0PxG4or32B9p8G-UYy-52" target="COJAAfJsYOspFRxzFlZO-10">
          <mxGeometry relative="1" as="geometry">
            <Array as="points">
              <mxPoint x="4190" y="693" />
              <mxPoint x="4102" y="693" />
            </Array>
            <mxPoint x="3939.8378378378375" y="735" as="targetPoint" />
          </mxGeometry>
        </mxCell>
        <mxCell id="De0PxG4or32B9p8G-UYy-100" style="edgeStyle=orthogonalEdgeStyle;rounded=0;orthogonalLoop=1;jettySize=auto;html=1;entryX=0.434;entryY=0.041;entryDx=0;entryDy=0;strokeColor=#007FFF;endArrow=none;endFill=0;fontFamily=Helvetica;entryPerimeter=0;" edge="1" parent="1" source="De0PxG4or32B9p8G-UYy-52" target="COJAAfJsYOspFRxzFlZO-13">
          <mxGeometry relative="1" as="geometry">
            <Array as="points">
              <mxPoint x="4190" y="693" />
              <mxPoint x="4271" y="693" />
            </Array>
            <mxPoint x="4449.8378378378375" y="735" as="targetPoint" />
          </mxGeometry>
        </mxCell>
        <mxCell id="6-QbLFjZhCQKoY5gVnMu-238" style="edgeStyle=orthogonalEdgeStyle;rounded=0;orthogonalLoop=1;jettySize=auto;html=1;strokeColor=#007FFF;endArrow=none;endFill=0;fontFamily=Helvetica;" edge="1" parent="1" source="6-QbLFjZhCQKoY5gVnMu-33" target="6-QbLFjZhCQKoY5gVnMu-236">
          <mxGeometry relative="1" as="geometry">
            <Array as="points">
              <mxPoint x="837" y="693" />
              <mxPoint x="517" y="693" />
            </Array>
          </mxGeometry>
        </mxCell>
        <mxCell id="6-QbLFjZhCQKoY5gVnMu-134" style="edgeStyle=orthogonalEdgeStyle;rounded=0;orthogonalLoop=1;jettySize=auto;html=1;entryX=0.5;entryY=0;entryDx=0;entryDy=0;strokeColor=#007FFF;endArrow=none;endFill=0;fontSize=14;fontFamily=Helvetica;" edge="1" parent="1" target="6-QbLFjZhCQKoY5gVnMu-124">
          <mxGeometry relative="1" as="geometry">
            <Array as="points">
              <mxPoint x="2100" y="609" />
              <mxPoint x="2100" y="699" />
              <mxPoint x="2010" y="699" />
              <mxPoint x="2010" y="743" />
            </Array>
            <mxPoint x="2088.9" y="608.5" as="sourcePoint" />
          </mxGeometry>
        </mxCell>
        <mxCell id="6-QbLFjZhCQKoY5gVnMu-135" style="edgeStyle=orthogonalEdgeStyle;rounded=0;orthogonalLoop=1;jettySize=auto;html=1;strokeColor=#007FFF;endArrow=none;endFill=0;fontSize=14;fontFamily=Helvetica;entryX=0.5;entryY=0;entryDx=0;entryDy=0;" edge="1" parent="1" source="6-QbLFjZhCQKoY5gVnMu-95" target="6-QbLFjZhCQKoY5gVnMu-127">
          <mxGeometry relative="1" as="geometry">
            <Array as="points">
              <mxPoint x="2100" y="699" />
              <mxPoint x="2188" y="699" />
            </Array>
          </mxGeometry>
        </mxCell>
        <mxCell id="6-QbLFjZhCQKoY5gVnMu-122" style="edgeStyle=orthogonalEdgeStyle;rounded=0;orthogonalLoop=1;jettySize=auto;html=1;endArrow=none;endFill=0;strokeColor=#007FFF;fontSize=14;fontFamily=Helvetica;entryX=0.5;entryY=0;entryDx=0;entryDy=0;" edge="1" parent="1" source="6-QbLFjZhCQKoY5gVnMu-111" target="COJAAfJsYOspFRxzFlZO-25">
          <mxGeometry relative="1" as="geometry">
            <mxPoint x="1745.90909090909" y="940" as="targetPoint" />
          </mxGeometry>
        </mxCell>
        <mxCell id="6-QbLFjZhCQKoY5gVnMu-113" style="edgeStyle=orthogonalEdgeStyle;rounded=0;orthogonalLoop=1;jettySize=auto;html=1;endArrow=none;endFill=0;strokeColor=#007FFF;fontSize=14;fontFamily=Helvetica;entryX=0.5;entryY=0;entryDx=0;entryDy=0;" edge="1" parent="1" source="6-QbLFjZhCQKoY5gVnMu-104" target="6-QbLFjZhCQKoY5gVnMu-111">
          <mxGeometry relative="1" as="geometry">
            <Array as="points">
              <mxPoint x="1746" y="699" />
              <mxPoint x="1657" y="699" />
            </Array>
          </mxGeometry>
        </mxCell>
        <mxCell id="6-QbLFjZhCQKoY5gVnMu-106" style="edgeStyle=orthogonalEdgeStyle;rounded=0;orthogonalLoop=1;jettySize=auto;html=1;strokeColor=#007FFF;endArrow=none;endFill=0;entryX=0.5;entryY=0;entryDx=0;entryDy=0;fontSize=14;exitX=0.5;exitY=1;exitDx=0;exitDy=0;fontFamily=Helvetica;" edge="1" parent="1" source="6-QbLFjZhCQKoY5gVnMu-19" target="6-QbLFjZhCQKoY5gVnMu-104">
          <mxGeometry relative="1" as="geometry">
            <Array as="points">
              <mxPoint x="2459" y="520" />
              <mxPoint x="1753" y="520" />
            </Array>
          </mxGeometry>
        </mxCell>
        <mxCell id="6-QbLFjZhCQKoY5gVnMu-107" style="edgeStyle=orthogonalEdgeStyle;rounded=0;orthogonalLoop=1;jettySize=auto;html=1;strokeColor=#007FFF;endArrow=none;endFill=0;fontSize=14;fontFamily=Helvetica;entryX=0.5;entryY=0;entryDx=0;entryDy=0;" edge="1" parent="1" source="6-QbLFjZhCQKoY5gVnMu-19" target="6-QbLFjZhCQKoY5gVnMu-95">
          <mxGeometry relative="1" as="geometry">
            <Array as="points">
              <mxPoint x="2459" y="520" />
              <mxPoint x="2097" y="520" />
            </Array>
          </mxGeometry>
        </mxCell>
        <mxCell id="6-QbLFjZhCQKoY5gVnMu-109" style="edgeStyle=orthogonalEdgeStyle;rounded=0;orthogonalLoop=1;jettySize=auto;html=1;strokeColor=#007FFF;endArrow=none;endFill=0;fontSize=14;fontFamily=Helvetica;entryX=0.5;entryY=0;entryDx=0;entryDy=0;" edge="1" parent="1" source="6-QbLFjZhCQKoY5gVnMu-19" target="COJAAfJsYOspFRxzFlZO-16">
          <mxGeometry relative="1" as="geometry">
            <Array as="points">
              <mxPoint x="2459" y="523" />
              <mxPoint x="2460" y="570" />
            </Array>
            <mxPoint x="3191.090909090909" y="563.0000000000002" as="targetPoint" />
          </mxGeometry>
        </mxCell>
        <mxCell id="6-QbLFjZhCQKoY5gVnMu-87" style="edgeStyle=orthogonalEdgeStyle;rounded=0;orthogonalLoop=1;jettySize=auto;html=1;strokeColor=#007FFF;endArrow=none;endFill=0;fontSize=14;fontFamily=Helvetica;" edge="1" parent="1" source="6-QbLFjZhCQKoY5gVnMu-37" target="6-QbLFjZhCQKoY5gVnMu-85">
          <mxGeometry relative="1" as="geometry">
            <Array as="points">
              <mxPoint x="1138" y="883" />
              <mxPoint x="1057" y="883" />
            </Array>
          </mxGeometry>
        </mxCell>
        <mxCell id="6-QbLFjZhCQKoY5gVnMu-88" style="edgeStyle=orthogonalEdgeStyle;rounded=0;orthogonalLoop=1;jettySize=auto;html=1;strokeColor=#007FFF;endArrow=none;endFill=0;fontSize=14;fontFamily=Helvetica;" edge="1" parent="1" source="6-QbLFjZhCQKoY5gVnMu-37" target="6-QbLFjZhCQKoY5gVnMu-82">
          <mxGeometry relative="1" as="geometry">
            <Array as="points">
              <mxPoint x="1138" y="883" />
              <mxPoint x="1227" y="883" />
            </Array>
          </mxGeometry>
        </mxCell>
        <mxCell id="6-QbLFjZhCQKoY5gVnMu-76" style="edgeStyle=orthogonalEdgeStyle;rounded=0;orthogonalLoop=1;jettySize=auto;html=1;strokeColor=#007FFF;endArrow=none;endFill=0;fontSize=14;fontFamily=Helvetica;" edge="1" parent="1" source="6-QbLFjZhCQKoY5gVnMu-236" target="6-QbLFjZhCQKoY5gVnMu-73">
          <mxGeometry relative="1" as="geometry" />
        </mxCell>
        <mxCell id="6-QbLFjZhCQKoY5gVnMu-77" style="edgeStyle=orthogonalEdgeStyle;rounded=0;orthogonalLoop=1;jettySize=auto;html=1;strokeColor=#007FFF;endArrow=none;endFill=0;fontSize=14;fontFamily=Helvetica;" edge="1" parent="1" source="6-QbLFjZhCQKoY5gVnMu-236" target="6-QbLFjZhCQKoY5gVnMu-70">
          <mxGeometry relative="1" as="geometry">
            <Array as="points">
              <mxPoint x="517" y="883" />
              <mxPoint x="686" y="883" />
            </Array>
          </mxGeometry>
        </mxCell>
        <mxCell id="6-QbLFjZhCQKoY5gVnMu-78" style="edgeStyle=orthogonalEdgeStyle;rounded=0;orthogonalLoop=1;jettySize=auto;html=1;strokeColor=#007FFF;endArrow=none;endFill=0;fontSize=14;fontFamily=Helvetica;" edge="1" parent="1" source="6-QbLFjZhCQKoY5gVnMu-236" target="6-QbLFjZhCQKoY5gVnMu-67">
          <mxGeometry relative="1" as="geometry">
            <Array as="points">
              <mxPoint x="517" y="883" />
              <mxPoint x="857" y="883" />
            </Array>
          </mxGeometry>
        </mxCell>
        <mxCell id="6-QbLFjZhCQKoY5gVnMu-79" style="edgeStyle=orthogonalEdgeStyle;rounded=0;orthogonalLoop=1;jettySize=auto;html=1;strokeColor=#007FFF;endArrow=none;endFill=0;fontSize=14;fontFamily=Helvetica;" edge="1" parent="1" source="6-QbLFjZhCQKoY5gVnMu-236" target="6-QbLFjZhCQKoY5gVnMu-64">
          <mxGeometry relative="1" as="geometry">
            <Array as="points">
              <mxPoint x="517" y="883" />
              <mxPoint x="347" y="883" />
            </Array>
          </mxGeometry>
        </mxCell>
        <mxCell id="6-QbLFjZhCQKoY5gVnMu-80" style="edgeStyle=orthogonalEdgeStyle;rounded=0;orthogonalLoop=1;jettySize=auto;html=1;strokeColor=#007FFF;endArrow=none;endFill=0;fontSize=14;exitX=0.5;exitY=1;exitDx=0;exitDy=0;fontFamily=Helvetica;" edge="1" parent="1" source="6-QbLFjZhCQKoY5gVnMu-237" target="6-QbLFjZhCQKoY5gVnMu-44">
          <mxGeometry relative="1" as="geometry">
            <Array as="points">
              <mxPoint x="517" y="883" />
              <mxPoint x="177" y="883" />
            </Array>
          </mxGeometry>
        </mxCell>
        <mxCell id="6-QbLFjZhCQKoY5gVnMu-28" style="edgeStyle=orthogonalEdgeStyle;rounded=0;orthogonalLoop=1;jettySize=auto;html=1;entryX=0.5;entryY=0;entryDx=0;entryDy=0;endArrow=none;endFill=0;strokeColor=#007FFF;fontSize=14;fontFamily=Helvetica;exitX=0.5;exitY=0;exitDx=0;exitDy=0;" edge="1" parent="1" source="6-QbLFjZhCQKoY5gVnMu-1">
          <mxGeometry relative="1" as="geometry">
            <Array as="points">
              <mxPoint x="2460" y="180" />
              <mxPoint x="2460" y="330" />
              <mxPoint x="838" y="330" />
            </Array>
            <mxPoint x="2085" y="360" as="sourcePoint" />
            <mxPoint x="837.5178378378379" y="379" as="targetPoint" />
          </mxGeometry>
        </mxCell>
        <mxCell id="6-QbLFjZhCQKoY5gVnMu-31" style="edgeStyle=orthogonalEdgeStyle;rounded=0;orthogonalLoop=1;jettySize=auto;html=1;endArrow=none;endFill=0;strokeColor=#007FFF;fontSize=14;fontFamily=Helvetica;" edge="1" parent="1" source="6-QbLFjZhCQKoY5gVnMu-1">
          <mxGeometry relative="1" as="geometry">
            <mxPoint x="2696.8888888888887" y="230.5" as="sourcePoint" />
            <mxPoint x="2470" y="380" as="targetPoint" />
            <Array as="points">
              <mxPoint x="2460" y="380" />
            </Array>
          </mxGeometry>
        </mxCell>
        <mxCell id="6-QbLFjZhCQKoY5gVnMu-32" style="edgeStyle=orthogonalEdgeStyle;rounded=0;orthogonalLoop=1;jettySize=auto;html=1;endArrow=none;endFill=0;strokeColor=#007FFF;fontSize=14;entryX=0.5;entryY=0;entryDx=0;entryDy=0;fontFamily=Helvetica;" edge="1" parent="1" source="6-QbLFjZhCQKoY5gVnMu-1" target="6-QbLFjZhCQKoY5gVnMu-26">
          <mxGeometry relative="1" as="geometry">
            <Array as="points">
              <mxPoint x="2460" y="330" />
              <mxPoint x="3810" y="330" />
            </Array>
          </mxGeometry>
        </mxCell>
        <mxCell id="6-QbLFjZhCQKoY5gVnMu-39" style="edgeStyle=orthogonalEdgeStyle;rounded=0;orthogonalLoop=1;jettySize=auto;html=1;entryX=0.5;entryY=0;entryDx=0;entryDy=0;endArrow=none;endFill=0;strokeColor=#007FFF;fontSize=14;fontFamily=Helvetica;" edge="1" parent="1" source="6-QbLFjZhCQKoY5gVnMu-22" target="6-QbLFjZhCQKoY5gVnMu-33">
          <mxGeometry relative="1" as="geometry" />
        </mxCell>
        <mxCell id="6-QbLFjZhCQKoY5gVnMu-41" style="edgeStyle=orthogonalEdgeStyle;rounded=0;orthogonalLoop=1;jettySize=auto;html=1;entryX=0.5;entryY=0;entryDx=0;entryDy=0;endArrow=none;endFill=0;strokeColor=#007FFF;exitX=0.5;exitY=1;exitDx=0;exitDy=0;fontSize=14;fontFamily=Helvetica;" edge="1" parent="1" source="6-QbLFjZhCQKoY5gVnMu-33" target="6-QbLFjZhCQKoY5gVnMu-37">
          <mxGeometry relative="1" as="geometry">
            <Array as="points">
              <mxPoint x="837" y="693" />
              <mxPoint x="1138" y="693" />
            </Array>
          </mxGeometry>
        </mxCell>
        <mxCell id="6-QbLFjZhCQKoY5gVnMu-56" value="" style="group;fontSize=14;fontFamily=Helvetica;" connectable="0" vertex="1" parent="1">
          <mxGeometry x="1060" y="735" width="155.67999999999995" height="95" as="geometry" />
        </mxCell>
        <mxCell id="6-QbLFjZhCQKoY5gVnMu-37" value="Laba / ଲବ" style="rounded=1;whiteSpace=wrap;html=1;fillColor=#b0e3e6;strokeColor=#0e8088;fontStyle=1;fontSize=14;fontFamily=Helvetica;" vertex="1" parent="6-QbLFjZhCQKoY5gVnMu-56">
          <mxGeometry width="155.67567567567565" height="47.5" as="geometry" />
        </mxCell>
        <mxCell id="6-QbLFjZhCQKoY5gVnMu-38" value="Tara /&amp;nbsp;ତାରା" style="rounded=1;whiteSpace=wrap;html=1;fillColor=#FFDEFC;strokeColor=#ae4132;fontStyle=1;fontSize=14;fontFamily=Helvetica;" vertex="1" parent="6-QbLFjZhCQKoY5gVnMu-56">
          <mxGeometry x="0.004324324324329609" y="47.5" width="155.67567567567565" height="47.5" as="geometry" />
        </mxCell>
        <mxCell id="6-QbLFjZhCQKoY5gVnMu-57" value="" style="group;fontSize=14;fontFamily=Helvetica;" connectable="0" vertex="1" parent="1">
          <mxGeometry x="759" y="380" width="155.67999999999995" height="142.5" as="geometry" />
        </mxCell>
        <mxCell id="6-QbLFjZhCQKoY5gVnMu-22" value="Sreepati /&amp;nbsp;&amp;nbsp;ଶ୍ରୀପତି" style="rounded=1;whiteSpace=wrap;html=1;fillColor=#b0e3e6;strokeColor=#0e8088;fontStyle=1;fontSize=14;fontFamily=Helvetica;" vertex="1" parent="6-QbLFjZhCQKoY5gVnMu-57">
          <mxGeometry width="155.67567567567565" height="47.5" as="geometry" />
        </mxCell>
        <mxCell id="6-QbLFjZhCQKoY5gVnMu-23" value="Phulabati / ଫୁଲବତୀ" style="rounded=1;whiteSpace=wrap;html=1;fillColor=#FFDEFC;strokeColor=#ae4132;fontStyle=1;fontSize=14;fontFamily=Helvetica;" vertex="1" parent="6-QbLFjZhCQKoY5gVnMu-57">
          <mxGeometry x="0.004324324324329609" y="47.5" width="155.67567567567565" height="47.5" as="geometry" />
        </mxCell>
        <mxCell id="6-QbLFjZhCQKoY5gVnMu-24" value="Padmini / ପଦ୍ମିନୀ" style="rounded=1;whiteSpace=wrap;html=1;fillColor=#FFDEFC;strokeColor=#ae4132;fontStyle=1;fontSize=14;fontFamily=Helvetica;" vertex="1" parent="6-QbLFjZhCQKoY5gVnMu-57">
          <mxGeometry x="0.004324324324329609" y="95" width="155.67567567567565" height="47.5" as="geometry" />
        </mxCell>
        <mxCell id="6-QbLFjZhCQKoY5gVnMu-58" value="" style="group;fontSize=14;fontFamily=Helvetica;" connectable="0" vertex="1" parent="1">
          <mxGeometry x="759" y="563" width="155.67999999999995" height="95" as="geometry" />
        </mxCell>
        <mxCell id="6-QbLFjZhCQKoY5gVnMu-33" value="Chamaru / ଚମରୁ" style="rounded=1;whiteSpace=wrap;html=1;fillColor=#b0e3e6;strokeColor=#0e8088;fontStyle=1;fontSize=14;fontFamily=Helvetica;" vertex="1" parent="6-QbLFjZhCQKoY5gVnMu-58">
          <mxGeometry width="155.67567567567565" height="47.5" as="geometry" />
        </mxCell>
        <mxCell id="6-QbLFjZhCQKoY5gVnMu-34" value="Dayamati /&amp;nbsp;ଦୟମତି" style="rounded=1;whiteSpace=wrap;html=1;fillColor=#FFDEFC;strokeColor=#ae4132;fontStyle=1;fontSize=14;fontFamily=Helvetica;" vertex="1" parent="6-QbLFjZhCQKoY5gVnMu-58">
          <mxGeometry x="0.004324324324329609" y="47.5" width="155.67567567567565" height="47.5" as="geometry" />
        </mxCell>
        <mxCell id="6-QbLFjZhCQKoY5gVnMu-59" value="" style="group;fontSize=14;fontFamily=Helvetica;" connectable="0" vertex="1" parent="1">
          <mxGeometry x="2380" y="180" width="153.95000000000016" height="95" as="geometry" />
        </mxCell>
        <mxCell id="6-QbLFjZhCQKoY5gVnMu-1" value="Ratnakar / ରତ୍ନାକର" style="rounded=1;whiteSpace=wrap;html=1;fillColor=#b0e3e6;strokeColor=#0e8088;fontStyle=1;fontSize=14;fontFamily=Helvetica;" vertex="1" parent="6-QbLFjZhCQKoY5gVnMu-59">
          <mxGeometry width="153.94594594594594" height="47.5" as="geometry" />
        </mxCell>
        <mxCell id="6-QbLFjZhCQKoY5gVnMu-3" value="" style="rounded=1;whiteSpace=wrap;html=1;fillColor=#FFDEFC;strokeColor=#ae4132;fontStyle=1;fontSize=14;fontFamily=Helvetica;" vertex="1" parent="6-QbLFjZhCQKoY5gVnMu-59">
          <mxGeometry x="0.0040540540542224335" y="47.5" width="153.94594594594594" height="47.5" as="geometry" />
        </mxCell>
        <mxCell id="6-QbLFjZhCQKoY5gVnMu-61" value="" style="group;fontSize=14;fontFamily=Helvetica;" connectable="0" vertex="1" parent="1">
          <mxGeometry x="2380" y="370" width="156.67999999999995" height="95" as="geometry" />
        </mxCell>
        <mxCell id="6-QbLFjZhCQKoY5gVnMu-19" value="" style="rounded=1;whiteSpace=wrap;html=1;fillColor=#b0e3e6;strokeColor=#0e8088;fontStyle=1;fontSize=14;fontFamily=Helvetica;" vertex="1" parent="6-QbLFjZhCQKoY5gVnMu-61">
          <mxGeometry x="1" y="7.5" width="155.68" height="40" as="geometry" />
        </mxCell>
        <mxCell id="6-QbLFjZhCQKoY5gVnMu-20" value="" style="rounded=1;whiteSpace=wrap;html=1;fillColor=#FFDEFC;strokeColor=#ae4132;fontStyle=1;fontSize=14;fontFamily=Helvetica;" vertex="1" parent="6-QbLFjZhCQKoY5gVnMu-61">
          <mxGeometry x="1.0043243243243296" y="47.5" width="155.67567567567565" height="47.5" as="geometry" />
        </mxCell>
        <mxCell id="6-QbLFjZhCQKoY5gVnMu-63" value="" style="group;fontSize=14;fontFamily=Helvetica;" connectable="0" vertex="1" parent="1">
          <mxGeometry x="269" y="929" width="155.67999999999995" height="95" as="geometry" />
        </mxCell>
        <mxCell id="6-QbLFjZhCQKoY5gVnMu-64" value="Barja / ବର୍ଜ" style="rounded=1;whiteSpace=wrap;html=1;fillColor=#b0e3e6;strokeColor=#0e8088;fontStyle=1;fontSize=14;fontFamily=Helvetica;" vertex="1" parent="6-QbLFjZhCQKoY5gVnMu-63">
          <mxGeometry width="155.67567567567565" height="47.5" as="geometry" />
        </mxCell>
        <mxCell id="6-QbLFjZhCQKoY5gVnMu-65" value="Swarjya /&amp;nbsp;ସ୍ୱର୍ଯ୍ୟ" style="rounded=1;whiteSpace=wrap;html=1;fillColor=#FFDEFC;strokeColor=#ae4132;fontStyle=1;fontSize=14;fontFamily=Helvetica;" vertex="1" parent="6-QbLFjZhCQKoY5gVnMu-63">
          <mxGeometry x="0.004324324324329609" y="47.5" width="155.67567567567565" height="47.5" as="geometry" />
        </mxCell>
        <mxCell id="6-QbLFjZhCQKoY5gVnMu-72" value="" style="group;fontSize=14;fontFamily=Helvetica;" connectable="0" vertex="1" parent="1">
          <mxGeometry x="439" y="929" width="155.67999999999995" height="95" as="geometry" />
        </mxCell>
        <mxCell id="6-QbLFjZhCQKoY5gVnMu-73" value="Dhananjaya / ଧନଞ୍ଜୟ" style="rounded=1;whiteSpace=wrap;html=1;fillColor=#b0e3e6;strokeColor=#0e8088;fontStyle=1;fontSize=14;fontFamily=Helvetica;" vertex="1" parent="6-QbLFjZhCQKoY5gVnMu-72">
          <mxGeometry width="155.67567567567565" height="47.5" as="geometry" />
        </mxCell>
        <mxCell id="6-QbLFjZhCQKoY5gVnMu-74" value="Amruta /&amp;nbsp;ଅମୃତ" style="rounded=1;whiteSpace=wrap;html=1;fillColor=#FFDEFC;strokeColor=#ae4132;fontStyle=1;fontSize=14;fontFamily=Helvetica;" vertex="1" parent="6-QbLFjZhCQKoY5gVnMu-72">
          <mxGeometry x="0.004324324324329609" y="47.5" width="155.67567567567565" height="47.5" as="geometry" />
        </mxCell>
        <mxCell id="6-QbLFjZhCQKoY5gVnMu-84" value="" style="group;fontSize=14;fontFamily=Helvetica;" connectable="0" vertex="1" parent="1">
          <mxGeometry x="979" y="930" width="155.67999999999995" height="95" as="geometry" />
        </mxCell>
        <mxCell id="6-QbLFjZhCQKoY5gVnMu-85" value="Chintamani / ଚିନ୍ତାମଣି" style="rounded=1;whiteSpace=wrap;html=1;fillColor=#b0e3e6;strokeColor=#0e8088;fontStyle=1;fontSize=14;fontFamily=Helvetica;" vertex="1" parent="6-QbLFjZhCQKoY5gVnMu-84">
          <mxGeometry width="155.67567567567565" height="47.5" as="geometry" />
        </mxCell>
        <mxCell id="6-QbLFjZhCQKoY5gVnMu-86" value="Saraswati /&amp;nbsp;ସରସ୍ବତୀ" style="rounded=1;whiteSpace=wrap;html=1;fillColor=#FFDEFC;strokeColor=#ae4132;fontStyle=1;fontSize=14;fontFamily=Helvetica;" vertex="1" parent="6-QbLFjZhCQKoY5gVnMu-84">
          <mxGeometry x="0.004324324324329609" y="47.5" width="155.67567567567565" height="47.5" as="geometry" />
        </mxCell>
        <mxCell id="6-QbLFjZhCQKoY5gVnMu-90" value="" style="group;fontSize=14;fontFamily=Helvetica;" connectable="0" vertex="1" parent="1">
          <mxGeometry x="609" y="929" width="155.67999999999995" height="143.5" as="geometry" />
        </mxCell>
        <mxCell id="6-QbLFjZhCQKoY5gVnMu-69" value="" style="group;fontSize=14;fontFamily=Helvetica;" connectable="0" vertex="1" parent="6-QbLFjZhCQKoY5gVnMu-90">
          <mxGeometry width="155.67999999999995" height="95" as="geometry" />
        </mxCell>
        <mxCell id="6-QbLFjZhCQKoY5gVnMu-70" value="Sadananda / ସଦାନନ୍ଦ" style="rounded=1;whiteSpace=wrap;html=1;fillColor=#b0e3e6;strokeColor=#0e8088;fontStyle=1;fontSize=14;fontFamily=Helvetica;" vertex="1" parent="6-QbLFjZhCQKoY5gVnMu-69">
          <mxGeometry width="155.67567567567565" height="47.5" as="geometry" />
        </mxCell>
        <mxCell id="6-QbLFjZhCQKoY5gVnMu-71" value="Neelabati /&amp;nbsp;ନୀଳାବତୀ" style="rounded=1;whiteSpace=wrap;html=1;fillColor=#FFDEFC;strokeColor=#ae4132;fontStyle=1;fontSize=14;fontFamily=Helvetica;" vertex="1" parent="6-QbLFjZhCQKoY5gVnMu-69">
          <mxGeometry x="0.004324324324329609" y="47.5" width="155.67567567567565" height="47.5" as="geometry" />
        </mxCell>
        <mxCell id="6-QbLFjZhCQKoY5gVnMu-67" value="Dhaneswara / ଧନେଶ୍ୱର" style="rounded=1;whiteSpace=wrap;html=1;fillColor=#b0e3e6;strokeColor=#0e8088;fontStyle=1;fontSize=14;fontFamily=Helvetica;" vertex="1" parent="1">
          <mxGeometry x="779" y="929" width="155.67567567567565" height="47.5" as="geometry" />
        </mxCell>
        <mxCell id="6-QbLFjZhCQKoY5gVnMu-44" value="Markanda / ମାର୍କଣ୍ଡ" style="rounded=1;whiteSpace=wrap;html=1;fillColor=#b0e3e6;strokeColor=#0e8088;fontStyle=1;fontSize=14;fontFamily=Helvetica;" vertex="1" parent="1">
          <mxGeometry x="99" y="929" width="155.67567567567565" height="47.5" as="geometry" />
        </mxCell>
        <mxCell id="6-QbLFjZhCQKoY5gVnMu-92" value="" style="group;fontSize=14;fontFamily=Helvetica;" connectable="0" vertex="1" parent="1">
          <mxGeometry x="1149" y="930" width="155.68000000000006" height="142.5" as="geometry" />
        </mxCell>
        <mxCell id="6-QbLFjZhCQKoY5gVnMu-81" value="" style="group;fontSize=14;fontFamily=Helvetica;" connectable="0" vertex="1" parent="6-QbLFjZhCQKoY5gVnMu-92">
          <mxGeometry width="155.67999999999995" height="95" as="geometry" />
        </mxCell>
        <mxCell id="6-QbLFjZhCQKoY5gVnMu-82" value="Lokeswara / ଲୋକେଶ୍ୱର" style="rounded=1;whiteSpace=wrap;html=1;fillColor=#b0e3e6;strokeColor=#0e8088;fontStyle=1;fontSize=14;fontFamily=Helvetica;" vertex="1" parent="6-QbLFjZhCQKoY5gVnMu-81">
          <mxGeometry width="155.67567567567565" height="47.5" as="geometry" />
        </mxCell>
        <mxCell id="6-QbLFjZhCQKoY5gVnMu-83" value="Lalita / ଲଲିତା" style="rounded=1;whiteSpace=wrap;html=1;fillColor=#FFDEFC;strokeColor=#ae4132;fontStyle=1;fontSize=14;fontFamily=Helvetica;" vertex="1" parent="6-QbLFjZhCQKoY5gVnMu-81">
          <mxGeometry x="0.004324324324329609" y="47.5" width="155.67567567567565" height="47.5" as="geometry" />
        </mxCell>
        <mxCell id="6-QbLFjZhCQKoY5gVnMu-93" value="&lt;font style=&quot;font-size: 30px;&quot;&gt;&lt;i style=&quot;font-size: 30px;&quot;&gt;&quot;We are like monarch butterflies, every generation builds upon the prior - embarking on a journey through time shaping who we are today.&quot;&lt;/i&gt;&lt;/font&gt;" style="text;html=1;align=center;verticalAlign=middle;whiteSpace=wrap;rounded=0;fontSize=30;labelBorderColor=none;textShadow=0;fontFamily=Helvetica;" vertex="1" parent="1">
          <mxGeometry x="4390" y="1720" width="1245.68" height="120" as="geometry" />
        </mxCell>
        <mxCell id="6-QbLFjZhCQKoY5gVnMu-94" value="" style="group;fontSize=14;fontFamily=Helvetica;" connectable="0" vertex="1" parent="1">
          <mxGeometry x="2019" y="561" width="155.67999999999995" height="95" as="geometry" />
        </mxCell>
        <mxCell id="6-QbLFjZhCQKoY5gVnMu-95" value="Rajendra / ରାଜେନ୍ଦ୍ର" style="rounded=1;whiteSpace=wrap;html=1;fillColor=#b0e3e6;strokeColor=#0e8088;fontStyle=1;fontSize=14;fontFamily=Helvetica;" vertex="1" parent="6-QbLFjZhCQKoY5gVnMu-94">
          <mxGeometry width="155.67567567567565" height="47.5" as="geometry" />
        </mxCell>
        <mxCell id="6-QbLFjZhCQKoY5gVnMu-96" value="Pramodini /&amp;nbsp;&lt;span style=&quot;background-color: initial;&quot;&gt;ପ୍ରୋମୋଦିନି&lt;/span&gt;" style="rounded=1;whiteSpace=wrap;html=1;fillColor=#FFDEFC;strokeColor=#ae4132;fontStyle=1;fontSize=14;fontFamily=Helvetica;" vertex="1" parent="6-QbLFjZhCQKoY5gVnMu-94">
          <mxGeometry x="0.004324324324329609" y="47.5" width="155.67567567567565" height="47.5" as="geometry" />
        </mxCell>
        <mxCell id="6-QbLFjZhCQKoY5gVnMu-103" value="" style="group;fontSize=14;fontFamily=Helvetica;" connectable="0" vertex="1" parent="1">
          <mxGeometry x="1668" y="562" width="155.67999999999995" height="95" as="geometry" />
        </mxCell>
        <mxCell id="6-QbLFjZhCQKoY5gVnMu-104" value="Debendra / ଦେବେନ୍ଦ୍ର" style="rounded=1;whiteSpace=wrap;html=1;fillColor=#b0e3e6;strokeColor=#0e8088;fontStyle=1;fontSize=14;fontFamily=Helvetica;" vertex="1" parent="6-QbLFjZhCQKoY5gVnMu-103">
          <mxGeometry width="155.67567567567565" height="47.5" as="geometry" />
        </mxCell>
        <mxCell id="6-QbLFjZhCQKoY5gVnMu-105" value="Sakuntala /&amp;nbsp;ଶକୁନ୍ତଳା" style="rounded=1;whiteSpace=wrap;html=1;fillColor=#FFDEFC;strokeColor=#ae4132;fontStyle=1;fontSize=14;fontFamily=Helvetica;" vertex="1" parent="6-QbLFjZhCQKoY5gVnMu-103">
          <mxGeometry x="0.004324324324329609" y="47.5" width="155.67567567567565" height="47.5" as="geometry" />
        </mxCell>
        <mxCell id="6-QbLFjZhCQKoY5gVnMu-110" value="" style="group;fontSize=14;fontFamily=Helvetica;" connectable="0" vertex="1" parent="1">
          <mxGeometry x="1579" y="743" width="155.67999999999995" height="95" as="geometry" />
        </mxCell>
        <mxCell id="6-QbLFjZhCQKoY5gVnMu-111" value="Alok / ଆଲୋକ" style="rounded=1;whiteSpace=wrap;html=1;fillColor=#b0e3e6;strokeColor=#0e8088;fontStyle=1;fontSize=14;fontFamily=Helvetica;" vertex="1" parent="6-QbLFjZhCQKoY5gVnMu-110">
          <mxGeometry width="155.67567567567565" height="47.5" as="geometry" />
        </mxCell>
        <mxCell id="6-QbLFjZhCQKoY5gVnMu-112" value="Hema /&amp;nbsp;" style="rounded=1;whiteSpace=wrap;html=1;fillColor=#FFDEFC;strokeColor=#ae4132;fontStyle=1;fontSize=14;fontFamily=Helvetica;" vertex="1" parent="6-QbLFjZhCQKoY5gVnMu-110">
          <mxGeometry x="0.004324324324329609" y="47.5" width="155.67567567567565" height="47.5" as="geometry" />
        </mxCell>
        <mxCell id="6-QbLFjZhCQKoY5gVnMu-123" value="" style="group;fontSize=14;fontFamily=Helvetica;" connectable="0" vertex="1" parent="1">
          <mxGeometry x="1937" y="743" width="155.67999999999995" height="95" as="geometry" />
        </mxCell>
        <mxCell id="6-QbLFjZhCQKoY5gVnMu-124" value="Deepak / ଦୀପକ" style="rounded=1;whiteSpace=wrap;html=1;fillColor=#b0e3e6;strokeColor=#0e8088;fontStyle=1;fontSize=14;fontFamily=Helvetica;" vertex="1" parent="6-QbLFjZhCQKoY5gVnMu-123">
          <mxGeometry width="155.67567567567565" height="47.5" as="geometry" />
        </mxCell>
        <mxCell id="6-QbLFjZhCQKoY5gVnMu-125" value="Abhipsa /&amp;nbsp;ଅଭିପ୍ସା" style="rounded=1;whiteSpace=wrap;html=1;fillColor=#FFDEFC;strokeColor=#ae4132;fontStyle=1;fontSize=14;fontFamily=Helvetica;" vertex="1" parent="6-QbLFjZhCQKoY5gVnMu-123">
          <mxGeometry x="0.004324324324329609" y="47.5" width="155.67567567567565" height="47.5" as="geometry" />
        </mxCell>
        <mxCell id="6-QbLFjZhCQKoY5gVnMu-126" value="" style="group;fontSize=14;fontFamily=Helvetica;" connectable="0" vertex="1" parent="1">
          <mxGeometry x="2110" y="742" width="155.67999999999995" height="95" as="geometry" />
        </mxCell>
        <mxCell id="6-QbLFjZhCQKoY5gVnMu-127" value="Deepesh / ଦୀପେଶ" style="rounded=1;whiteSpace=wrap;html=1;fillColor=#b0e3e6;strokeColor=#0e8088;fontStyle=1;fontSize=14;fontFamily=Helvetica;" vertex="1" parent="6-QbLFjZhCQKoY5gVnMu-126">
          <mxGeometry width="155.67567567567565" height="47.5" as="geometry" />
        </mxCell>
        <mxCell id="6-QbLFjZhCQKoY5gVnMu-235" value="" style="group;fontSize=14;fontFamily=Helvetica;" connectable="0" vertex="1" parent="1">
          <mxGeometry x="439" y="733" width="155.67999999999995" height="95" as="geometry" />
        </mxCell>
        <mxCell id="6-QbLFjZhCQKoY5gVnMu-236" value="Khyamadhara / କ୍ଷମାଧର" style="rounded=1;whiteSpace=wrap;html=1;fillColor=#b0e3e6;strokeColor=#0e8088;fontStyle=1;fontSize=14;fontFamily=Helvetica;" vertex="1" parent="6-QbLFjZhCQKoY5gVnMu-235">
          <mxGeometry width="155.67567567567565" height="47.5" as="geometry" />
        </mxCell>
        <mxCell id="6-QbLFjZhCQKoY5gVnMu-237" value="Kanchan /&amp;nbsp;କଞ୍ଚନ" style="rounded=1;whiteSpace=wrap;html=1;fillColor=#FFDEFC;strokeColor=#ae4132;fontStyle=1;fontSize=14;fontFamily=Helvetica;" vertex="1" parent="6-QbLFjZhCQKoY5gVnMu-235">
          <mxGeometry x="0.004324324324329609" y="47.5" width="155.67567567567565" height="47.5" as="geometry" />
        </mxCell>
        <mxCell id="6-QbLFjZhCQKoY5gVnMu-284" value="Aarav / ଆରଭ" style="rounded=1;whiteSpace=wrap;html=1;fillColor=#b0e3e6;strokeColor=#0e8088;fontStyle=1;fontSize=14;fontFamily=Helvetica;" vertex="1" parent="1">
          <mxGeometry x="3823" y="911" width="155.67567567567565" height="47.5" as="geometry" />
        </mxCell>
        <mxCell id="6-QbLFjZhCQKoY5gVnMu-285" value="Aaryan /&amp;nbsp;ଆର୍ଯ୍ୟନ" style="rounded=1;whiteSpace=wrap;html=1;fillColor=#b0e3e6;strokeColor=#0e8088;fontStyle=1;fontSize=14;fontFamily=Helvetica;" vertex="1" parent="1">
          <mxGeometry x="3823" y="971" width="155.67567567567565" height="47.5" as="geometry" />
        </mxCell>
        <mxCell id="De0PxG4or32B9p8G-UYy-1" value="Devisha /&amp;nbsp;ଦେବିସା" style="rounded=1;whiteSpace=wrap;html=1;fillColor=#dae8fc;strokeColor=#6c8ebf;fontStyle=1;fontSize=14;gradientColor=#7ea6e0;fontFamily=Helvetica;" vertex="1" parent="1">
          <mxGeometry x="1937" y="936" width="155.67567567567565" height="47.5" as="geometry" />
        </mxCell>
        <mxCell id="6-QbLFjZhCQKoY5gVnMu-26" value="Mitrabhanu / ମିତ୍ରଭାନୁ" style="rounded=1;whiteSpace=wrap;html=1;fillColor=#b0e3e6;strokeColor=#0e8088;fontStyle=1;container=0;fontSize=14;fontFamily=Helvetica;" vertex="1" parent="1">
          <mxGeometry x="3732" y="380" width="155.67567567567565" height="47.5" as="geometry" />
        </mxCell>
        <mxCell id="6-QbLFjZhCQKoY5gVnMu-27" value="Parvati / ପାର୍ବତି" style="rounded=1;whiteSpace=wrap;html=1;fillColor=#FFDEFC;strokeColor=#ae4132;fontStyle=1;container=0;fontSize=14;fontFamily=Helvetica;" vertex="1" parent="1">
          <mxGeometry x="3732.0043243243244" y="427.5" width="155.67567567567565" height="47.5" as="geometry" />
        </mxCell>
        <mxCell id="De0PxG4or32B9p8G-UYy-48" value="Jugesh / ଯୁଗେଶ" style="rounded=1;whiteSpace=wrap;html=1;fillColor=#b0e3e6;strokeColor=#0e8088;fontStyle=1;fontSize=14;fontFamily=Helvetica;" vertex="1" parent="1">
          <mxGeometry x="3383" y="565.25" width="155.67567567567565" height="47.5" as="geometry" />
        </mxCell>
        <mxCell id="De0PxG4or32B9p8G-UYy-49" value="" style="rounded=1;whiteSpace=wrap;html=1;fillColor=#FFDEFC;strokeColor=#ae4132;fontStyle=1;fontSize=14;fontFamily=Helvetica;" vertex="1" parent="1">
          <mxGeometry x="3383" y="613.25" width="155.68" height="45" as="geometry" />
        </mxCell>
        <mxCell id="De0PxG4or32B9p8G-UYy-50" value="Ramesh / ରମେଶ" style="rounded=1;whiteSpace=wrap;html=1;fillColor=#b0e3e6;strokeColor=#0e8088;fontStyle=1;fontSize=14;fontFamily=Helvetica;" vertex="1" parent="1">
          <mxGeometry x="3732" y="564" width="155.67567567567565" height="47.5" as="geometry" />
        </mxCell>
        <mxCell id="De0PxG4or32B9p8G-UYy-51" value="Sushila /&amp;nbsp;ସୁଶୀଲା" style="rounded=1;whiteSpace=wrap;html=1;fillColor=#FFDEFC;strokeColor=#ae4132;fontStyle=1;fontSize=14;fontFamily=Helvetica;" vertex="1" parent="1">
          <mxGeometry x="3732.0043243243244" y="611.5" width="155.67567567567565" height="47.5" as="geometry" />
        </mxCell>
        <mxCell id="De0PxG4or32B9p8G-UYy-52" value="Suresh / ସୁରେଶ" style="rounded=1;whiteSpace=wrap;html=1;fillColor=#b0e3e6;strokeColor=#0e8088;fontStyle=1;fontSize=14;fontFamily=Helvetica;" vertex="1" parent="1">
          <mxGeometry x="4112" y="564" width="155.67567567567565" height="47.5" as="geometry" />
        </mxCell>
        <mxCell id="De0PxG4or32B9p8G-UYy-53" value="Rajkumari /&amp;nbsp;ରାଜକୁମାରୀ" style="rounded=1;whiteSpace=wrap;html=1;fillColor=#FFDEFC;strokeColor=#ae4132;fontStyle=1;fontSize=14;fontFamily=Helvetica;" vertex="1" parent="1">
          <mxGeometry x="4112.004324324324" y="611.5" width="155.67567567567565" height="47.5" as="geometry" />
        </mxCell>
        <mxCell id="De0PxG4or32B9p8G-UYy-54" value="Dilip / ଦିଲିପ" style="rounded=1;whiteSpace=wrap;html=1;fillColor=#b0e3e6;strokeColor=#0e8088;fontStyle=1;fontSize=14;fontFamily=Helvetica;" vertex="1" parent="1">
          <mxGeometry x="3646" y="738" width="155.67567567567565" height="47.5" as="geometry" />
        </mxCell>
        <mxCell id="De0PxG4or32B9p8G-UYy-55" value="Sujata /&amp;nbsp;ସୁଜାତା" style="rounded=1;whiteSpace=wrap;html=1;fillColor=#FFDEFC;strokeColor=#ae4132;fontStyle=1;fontSize=14;fontFamily=Helvetica;" vertex="1" parent="1">
          <mxGeometry x="3645.0043243243244" y="785.5" width="155.67567567567565" height="47.5" as="geometry" />
        </mxCell>
        <mxCell id="De0PxG4or32B9p8G-UYy-119" value="&lt;font style=&quot;font-size: 40px;&quot;&gt;FAMILY TREE: PATEL FAMILY, GOUNTIAA JAMA OF VILLAGE LOKDEGA, SUDARGARH, ODISHA, INDIA&lt;/font&gt;&lt;div style=&quot;&quot;&gt;&lt;div style=&quot;&quot;&gt;&lt;font style=&quot;&quot;&gt;&lt;font style=&quot;font-size: 40px;&quot;&gt;&lt;span style=&quot;background-color: initial;&quot;&gt;ପରିବାର ବୃକ୍ଷ:&amp;nbsp;&lt;/span&gt;&lt;/font&gt;&lt;span style=&quot;font-size: 40px; background-color: initial;&quot;&gt;ପଟେଲ ପରିବାର,&amp;nbsp;&lt;/span&gt;&lt;span style=&quot;background-color: initial;&quot;&gt;&lt;span style=&quot;font-size: 40px;&quot;&gt;ଗୌନ୍ତିଆ&amp;nbsp;ଜମା,&amp;nbsp;&lt;/span&gt;&lt;/span&gt;&lt;span style=&quot;background-color: initial;&quot;&gt;&lt;span style=&quot;font-size: 40px;&quot;&gt;ଗ୍ରାମ ଲୋକଡ଼େଗା, ସୁନ୍ଦରଗଡ, ଓଡିଶା, ଭାରତ&lt;/span&gt;&lt;/span&gt;&lt;/font&gt;&lt;/div&gt;&lt;div style=&quot;font-size: 40px;&quot;&gt;&lt;font style=&quot;font-size: 40px;&quot;&gt;&lt;font style=&quot;text-align: left;&quot;&gt;( Vansh /&amp;nbsp;ବଂଶ: &lt;strike&gt;Geruaa / ଗେରୁଆ&amp;nbsp;&lt;/strike&gt; &amp;nbsp;&amp;nbsp;&lt;/font&gt;&lt;/font&gt;&lt;span style=&quot;text-align: left; background-color: initial;&quot;&gt;&amp;nbsp; &amp;nbsp;&amp;nbsp;&lt;/span&gt;&lt;font style=&quot;background-color: initial;&quot;&gt;&lt;font style=&quot;text-align: left;&quot;&gt;|&amp;nbsp; &amp;nbsp;&amp;nbsp;&lt;/font&gt;&lt;/font&gt;&lt;span style=&quot;text-align: left; background-color: initial;&quot;&gt;&amp;nbsp; &amp;nbsp;&amp;nbsp;&lt;/span&gt;&lt;span style=&quot;background-color: initial; text-align: left;&quot;&gt;Gotra /&amp;nbsp;ଗୋତ୍ର: &lt;strike&gt;Gayeghat / ଗାଏଘାଟ&lt;/strike&gt; )&lt;/span&gt;&lt;/div&gt;&lt;/div&gt;" style="text;html=1;align=center;verticalAlign=middle;whiteSpace=wrap;rounded=0;fontSize=28;fontFamily=Helvetica;" vertex="1" parent="1">
          <mxGeometry x="69" y="25" width="2070" height="170" as="geometry" />
        </mxCell>
        <mxCell id="Aixa7AIu-mXBb4UCu2np-40" value="" style="shape=image;verticalLabelPosition=bottom;labelBackgroundColor=default;verticalAlign=top;aspect=fixed;imageAspect=0;image=data:image/png,iVBORw0KGgoAAAANSUhEUgAAAOEAAADhCAMAAAAJbSJIAAAB3VBMVEX////rJmb//f7tOlbtPFOzMHqwMXvsLGHDLHXpJWjuS0jsNFv/+/zuR0vtPlK/LXbtQk/wYDfvVEHsMF7PK3HLK3K5L3j99vnwXTrvWT3TKm/HK3PvT0XfJ2vXKW7kJmnxZTPb1ef97/P2qr349fqmMn5XPZb96/D5xMfsNEv7187uRkH0jqju5e/07/bsKFqejr+5fq6NN4f50dvrDFrvYIb96uv5wc3zjI74ur31m5760druPEX02OXsOnD85ObxbwD4urDOgazwZx/3qo/CR4f5xrr2oqvYqsjxcJLRWI/zhJuXJHvwW27u2uf1nrX3tMfRk7jBk7vXu9V/MIfUQ4DAtdTKcqKLTpdtNIzlvdOFba6uoMmXNYSDKYPBosZVOZVyWqSRf7dlLYvuT4LufaL0kaHqZ5PtJT7rDE3uT3bvVF/ze4DxbFj3qaXxa4fvVH7wXlnzeUzzfnz1mYXvShX1mnjzfTz0j1zvUzHzfYO+bqT4vKa5WJXydiL2pIP0g0nyd1nxaWXzg2XybkPwYArzim/cb5zhh631ko+wf7GuYZzxZm7ky96NCHauY52qRYt6SZl4JYS1SImTXqLRxt9qUKClAG5IJ46Aaqu6d6mXRo+zh7aNWJ9iGYjiFuh9AAAYnElEQVR4nO1diVsT19cmE9lkEFBgVEScJBCSMMOSQESyVBAJELKQEEgghB0B61KXFmvaX9UWSkkFZCmC/Vu/e+/sySRaP7Lgk/fp085MJnDfOfs5d2hBQR555JFHHnnkkUceeeSRRx555JFHHnnkkUceeeSRRx555JHTwIlsryDdUPVkewXphl2d7RWkG8aWbK8g3TAvZ3sF6YZnIdsrSDfctmyvIN1oUWR7BWcMOxZ3oUURf4WwZ2oxaYF9KS7CD5rwuDsWz3kOMLAkZTRo0krOVQvmTC4nDVAplyTnnSaJUhLLy3EyPX8YeNAsPn2yYhWftpQaM7ucNMC+NqISzvDVFTEla8O3EB6XHtwRTlSrKyK7w5dLv4U0tefBWhd/oi1b8QgfGRW28x0qGOCVlm7+xFq2IpLaoGkwPjqeSzy0bPP+0li2MsB/YLeZ3FlZ0VljwFLJq2mzslWIHmaF6fx7UojmcgsfMDxK5WNeoC0mRZf8V84Zesotj7jjAcCQz9I6FbZznrGxsJdbbnPHS0rlKp+22YrPN0M7FwjsT3mG+EOlsowPEA3nmyHx/feswfVcNHAMiRGlUsmH/NLzzbCgWc8dCAztOqVSxztTW7FCm/i9c4hHBgOXtzXrLgBXw33wpPgbiRbbBgOX1CxBhnwmvmjK5Yj/5dmW1nDDwDoX1bbuAqDIRUd1cXFn7hqi/YsL17vrN56yPHoqLwGGOk5wRkWxInfVlOj+wqff9f3ly5wZLukuXYJqyj4dohMIMS2rOxPo74jP7v+ajPDdy5cvc9OYtUokRCV3rjYpTDk8qbl7R2SL935IkmFCET5jj/UPGIZ8vFDZctoSC57dE45xQn6h2PP1a5wIsdsWwBCpKZfWqIsVihx2p/Zrr0VnelmK+vVr689Zs7M/LWcZKrkqGAgxp8v8+y/uCiddv8p4167frl5b5/T3jgUwZAyxjLvXA4TY+Tm3nD09xp5X3RfOXt5PvOP5+tX15+xx19NyxBAKcYVLAYA7VSjiulHWTUkuh8Xos1vyfwX+2wuBlv7HBHXTv7h69R0nQuKhhWeo5MOg2aRQ2CQt1ALH9ZjojPBKP80w9Fff8RSJn36KU7eu36qq1gV3pHplYQzxwpqoo/hEAfRU8jXcJTqhfo4VZBV3X7zjSoiC19+9ln54b72q6pZeOCfWLEiISnEXHMREhSLp7MIaDZ3ZWr8Sf/S945RT9eMvevFH+lu3qqreihPYrm0YL5QSPnYbYLiQpIoKHTnOcrFfha4f+t5ylvbrdxI9/RUyvCe52w6zGo/kEtGpUJQmaX07irJPEEqq738sL/0vYj2134IM70rvtq+J2sMMBiHDBZmIQPQe9Z7pUv8bhCTt9a2+l+z6Xn4n0tPXfbIMda/i8rtFk6K0oSHREqnxo94sTt6ab/DeAvujr+9XxtqAEF9ydoe/hTJclzKEWqp7qJJcgzJsKE3YZqPtPxrPZspqfyYIC5hiH2Nu+MtffuGih/0dFGHVc/G3msuhp9GNiAOn6glk2LAQJ65QbW2GCRJxRT2O6fk16fv6+hhi+u9++R+7Lj0yw6ofhGVi3eVs2jYiKpl6ShHDeqlgQ7UV4xnuUqnM8RmL9jlvUK/7+n5kKP7EO5v7DENBTYnbQk6zouYfD3KlgKGEj6Oiol9KOQMgBgbifqf+N05TsXt9fbcQX/2PfT8xUruPCF69evUukj7e/MYg5KVK5WMmbyNaTAzDBhFDbLOkYkic2GQIWPdInKO/+4ILDsTbvr4/kFhe/97H8NazDK+t/9nT1dX87CIgKDAsK7vSYtbazcDNsDIUHh++WVdSm51k1L691iwxx3sv/mDNDP+J8zavf2f+2/XuFiJ47dr6+rrBYLh4ETAsX6vUPR5BDMtaV0wmUzHHUCihVEN1Jf0CQTyjlYXqdqUkmuHP1t+y5tn1to9NQV+zfvWPKpbh5cuXb9y4ARla1tSXdAMehuGVK1eKEUHEkK/0IcExUQfOEaXSzkuMbkv5HZE5dr1d54oL4oc+NmdjpXF/HVohIniZIVhe2Wy/pHsER2wsQZ5hPcdJO1RTVyJW0dDPmWUINNWyJmokdr1br3rNaG7Xy98ltQX+Nl6E5c0FgCEw5oEyMcNSUcAnhmpqRBLErDEs45P+rtsGw7YQOfTv1m+x2TUe13DTSwhetMCq0HxJN6wqwNQrIiWFaSnrSfHN6hqRBK29Xk3CAjLAuLvcYHjGc9RXXX3xnBWqXVI9Fei/X+cZGgy3uwrwOw8uXdCVgXhvfNzaKigpXzxtXq8e4o4x63hiaYG7yExkOj3bBsNTXlXvX726fk/+wdr/YAgCT/qsGZhntw72oS6sAktWqVeLgSeFHBtaOFKh6usb3LFrvKgovrzHfaO+RKGmA8SfwP2/4VKv+1Xr66+T3Kl/9Ozp0zfPHjH3butQMNShCpEwt3Qu2BYG3bxWqsaqN9lH5eotPIrGBX0qMhHJXOhofmq4fONP1uyALa7rk92J4wTOSfgCE+750QxOEOJ8d3OMbVlovbW1tV5JCqWJbXW0ZzTPsT803DC8YUso+/MXbz9XysGnscZkbCvyFb3WzWqosb+iotYr/kjje//3iS/9PkYrmaI0A++xzvmYrrupd8bgd9aASAZ0iOGVlFWDdrwE5N3ikOgaDf/d4chENbyklGSL9mcGw+U3X9ST77ptgbuGVK90MJ/xpLrVNQQIiionLObdcYYzpKA9A4RdIipojZebk90uAmzow81thFqpHBY0wZqod1qQtFWE+Oua0M9Op/OvDPZMVQO3e0QeQPUIcIxvLcmgB1QVOrgxChspE+KZUcYeN+r6haY+HYo2Njp3Qpkt9rvXRh6JNLPr7hvDo+R3s8BfWZg+KWDI2xOxkDgd1W44eH6EA/JzjmY4LwW/eOnBg4fNIkHaH8l5GaLn0bM3T988fNQDKXVdAoECpqQjZdwN1ieDqZwH4eg/amxs9GZjLIOZRyyV2wMpXQwo6YGrBbmMxVL+EBaVA2gXxrB9pJi5gVDbTKmq3Nh4YVFj48+uLO2wJZYqLZbK28lH8NDNgmQbFb3lFgssKpd0KFCUXbHatVZzy5OUe2mI3sLCoqJMDGVURqNd1syNDysrLZWvkshR/xTxQwQrASygGMGXlFzlC1JukHa7k4vHGgUEe2PSG7D0BESVebFz2CPj1fHuNYvFsibrZPQXAUGDwQL+scBpU+Ul3RoBSqYyXRlXGJrix6JiWGuPihKnhr6tdCXdWk+nydTpNscLEx/Ytlge3E5s+tmBhhosINu223sGtpndCTq4b1bVstpadqW1tdVka0mRAlnHE+jhNEVHJtLndHCr22Yy2TpbPHZJY1jVfHt7bSD+buKVpdyy3czqlOoO9KIX2D2XWvMT2+Ag+DngGFN5WhaXlxfV1jj1k2zrwDRUzDH6ccunSXNLCje22FZWVlpXh7uNkgUk7jLptpQb7oiudiMvqtxmzgaH2cvGxVI0kmmor1/2yJsk5oqNftxx/h1uj2VkREOYh1eBhpWVjQx3y7sfBBzormS7VMErlG6XMd2XYYahtoVtBNfX3wQYStzepgl5ozsg4DvfR6jMhQytebB4BXDUXXmsThYOeyotr6T8e5SIIeNaFtF+KPuqiSMIGV6/Xh1HEXNEi2BCE/4Yy0xRLwA3L62WtYIqdmXELDtZGLBUxl0nHqMwMYwkMQyjoJnrkrIiBAyrJfN61weYz+y0+7IyX8O05qWRMlDH6kYeJXLEXlmW4q8NwzBYxrwA1AIYGm2IYGn9wsICR7B6TOQ/VeMfPkS9ISqLA1LcbnYPd44oHyfoKj5yKeHaMCTY+phhqC5QLUCCigW3FQRJlXnjJiRYUzMk+gahSik8jKaoTCgvDhF/kVh7HH8NewzjfCsrQ08BGjc1uDkOuBoRrKtLvSsBwzU0RR4EIm1zk3NTB9mTL7GWoKSqVZjHtDJt7R6rtQGI0Cae26uv1wCGJUPJ5EZQMV/kdGv/k3/v33935wJkGiKjseFLdyvj8SM48OXiK5Ahx6kT7vOSdmo2qwHBkpLEzUG0yzf6/mQaYm/PPzEZOUhX2DfXGwmP2602m412LSG0B2XwKmFXhbsVpqIcKS2IE/Vx91irIcGKTclFjHJ8/CscDnd0dEz7Oya2IrG02h7ssRjdnYoVk0lhW+1cdHuMSabQ6oQ+kw0wLDZxsxe3qdSUkHUPAYYVFf2iB4fFYIMGBMTpjpOPoz5XhgphmEo+UZhMILVpLbYNG+WsPeEP0PSswHKpmC0miU5FaWJt74AirKgVHprq487Ozl/vP7ZHfJQmw1WwyqgeBHk4YLliakFLNaqXltSCncZpID4IRzDFxU8GzfBue31paeLuICMkWFErtAwJCoCO3wCSQWjN6pYWN0pqzLYVINGVlVUPN/CWLsuM+A0OgocCqZmBCBN/nhURzNLw/jNQF7fCig/4ytbE8A+AdwIRmhYJQg0ztZYCd6nMBq8CIyKYkwx7VopbFZ2Dq4jjFZmQojaBeh41LMwwkXEvli7LhL0QIliYgwzhWy+LWgwjjIOQoi2hN2VXmGyL7MLVpXBgL7vR0lsCCRaKo6TGFYsA+GIuitZwrinTdQawH0VxJ2N2uNtUXNxqiw8hnkE1LxiiE1YTDXKCilZAgh9EPjb0c9jpRKEexML9rdPIAUljB5Np6Q7jKq3VajR61G7YdFhYqK9vaLDZniwvqs2E2aTgxeaGLbSUb8AYFaBakvtDGFqko4Xi3aS+9pPwNMsQUAQcp3zUwSfyzGhBqFwhh3dzY2hsrLoa1Dj1kBoEUDbgNEDkX9SaTaW8SLBhIMXilG/A1EPIZApeJMJCSdaG0a6Yz+eLAS2laE5Pzzjuq1zWWCjk8ag3NzcXN5ah/FA5B/7TOdjigf2aHoUgwwKtDc7lU3mLxYb6m/WJszVtPyL4IauvzGIYBkolggXOxTzVgrhzDV+AKU41jFDDin4z4XJvBSRY6M3Jv5HhNj0RLI+ApW2q1+08kOFyvJrGkASLjrKwG/ELgNsUov3LqP/yJPnGUA9sWYzFKaMLeZkiiZ/JJZjrRWmmCqTVpSn69R7Uk5GmPtpxRLDog0SEGE1BP+OLgWCYFeUl7EazB9SK4JebxdWexwSjelJLbEFNJ4kvIoYYgkfS8pduD/+N6l6//9P+aQAQPWsKSYGpXGb3xgITPJBJGRdKPRwnHAaU0qQRYwgSrBELC0gQ2mBRUW+cpDDKd7p/4kcIBoO7u5NtATID7SeXZ3MIxMZ6RPCmm7E467JikbMtN0xbkr3jQ1RDiO1QxRGMymUKtMsX2drf9e/Ns0A008NStWEssHo2SpAMqsfGljc2RRVhgXm5fpEZZ2gXoGwX5X9K6DrqGgqeyNrPEUyVjWko8sAXmGqbmzyePWya+Wd2DkjzrFtt1jpHgcuKYNdqtar4eQxh3FxebgGWaV2Ejfp62b4Vtgn41dRs8IuLcQSLviRQYJhGQ1MUSR4EAlOBg7POUF2ff2bA+QDfYwRZy8162T+k5xqDTcM6fjtXqJYl+CExDyLozJcRX4pNGNXr5SIG7BnWldSxdHAvSmTkVdR3cnKyf5rN12MRXCHPZmKL0wpT15vViWLRltTBnuEYc4b3shI8isr4JU0E1BR+/34k43tpOBDA7dRcv1ktN9rchGH9ZnVCZrOBCJYwSspHiSOvvP5ToxOA4t7e/kEW1BVzOTbGaoBb3JCtI7Rj1wFubsRRdCB+Ff3IqdBRzsckH1ZQvq0JEAmDkxncNougdWwAdaurqZPnB+CBs6Tq60MS7QtVoJZoBRIhFa1l+O2k3jFDk5Gt3fl/d6cyp6x0aLMCiWLIm2K30kY1miaNCcsnQgw/5n0tKsoKcPzzK8c0ZGBucraNxDLRpHF5+8EiS0r6vdaU4z3rGAp8NXXcLkPXOMOvogIqJTHO8Dvq/VL101AHAZI8PtsWRgJUoegRqHP6e0OSB6+iZMha6yCgMg95QyHvEMOvthbpKCAI+RU1ehO/iEBvwSlMgoqQhwdnwSMZXN4PR4VFUW9MK9lQE9oc6pczR6iUAhh6gCASmpclKPYxhMSh0lugotgKxEuYTl8ZpQmNHx3Bubr0sssLbVJ+SzNyLJxqInoAKL2OHTEEpW2nuNmSb2IP1BMZioa4yxuN9ibuGqC8tXDxyf7kgWtIyg6+XgAJuj4gfo1x38NiUjZ0BEaK3Tky7eUvHvN6Q65EU8Mc/YBgSW/ylFnllfIrYjZv9yJ+iX8qAfPFCYw6Dc4Djm1pdi8YJasoWKj/qLaw35u6/af19nP0CqMO5imFIL9GOSejGUVaQvn4ApCe+hRsmp+fSzNHObiAuy8cD3Gmg1HJYr8q5B2PRqPjfHQhoohgr1ywcUWgkKl9/z7/6ggVOG6amWlqy3B2qvIeFY07hF9q7S1MKUuxJTkgv8Yd+W7cqA/+2wWy0X1ebBjZdphhjngoKqYHX8Eq/OI/sKKKIoZJ7qeZLbIk9DER4bkgQR62ZSQ5BQ6PCIXE6RrmKCr8D39gJQT5OT8m+ziChFhA7gMX0yZSZPpgbuafw0AGuoouZ1zX1voBBLf/8CdydpCOJtU4+hPrZKZ2g/O7ktvowPFMUyDtmSkujfm4o7Go6ANHMNUeGxYuJxThaPIbt3zsATkZnJ+V+lANsMjj9IdHMehxsF6uU42F5Er1ODgAw7AzhdPwbXEMsMDu/G58HkoHJjMZOmJR0Rstrmhj9LPfID46w2HnzynuoD4J9GngRBNMD6MCgUy5VeA0nLxTDH1obPz82x/0DmAY9qW4QzMhFhs5+c+UzE/JzK5Eut3pdPKvJDmOGp1f4FBjkOBJShHst0lOD47bstRUpP5yOnf4lwRhGGf6SXhKQfogw48pfcXcpPRcE5jKCkXfjtM5ykdg4D+czPgWb08a6iBGIcPRlD+5bTf+Ck0F0lr4ykEzGna+F4TlcDrDTCIJPElKGbaHOzqmU5khYBhM/HWzx1+1zK8Hcfq3c1RQHV/YyTbM8Hbnx5ROoD0c7phO7ZDagolKLF/epA9Ux/SW6Ff6/na2s/r60cmKEE/S4GyHe2FTz2DmZBhmGLGTE59IULFw2MHK0+EMtzPK2v6XPMPT6c8xxGYT7DDTiEyfilfvCp9wWucDXoSRLVBW+V7jKGSYUkup3dmzWOXXgz7dl4iAOuE9qusESBMd+cLT6IBOiJC+6c95moP5tlQfpx30VkQSnOj3/HLx9+HpdqYLccJmnpH2+O+7pjv8/kiq3zA1EzibpX4dXFJ+WIFPUFiggCeIIHY6PX0KD6hpJvJRTCkBP6ThNGkrhbvVHB5moSfDg5Z2oX1bonNfRwdrkC5whEQ4Os1Ia5R58xM+DWwLMJxI4fsDM8c5NPmNiJZKd/g5+9qaZo4o1qdQfkRYsw/PfHv+VGqqOZbLtLMGTHjamq1pbt2u6WmmxDudZp5AhBEatQtv0MC9MRNJI97UzGHWRr6pEQHWxSwbO2W1EJgcaisRW35U8pF7yDhPg8HgXjJnQjXNZNeTJoXL7+feI4/5/Yy2RlhtpCYY8pG9LRgjqU+wVS/vTajZmdls70yQh2Zf8B5be4znxPb9eyhyHvj9yKWe7u2jh+Cbh2NrOSL05ExTxouIL0Nkb4LLU1z+fUZbSb//E/Ohfw8tezLIMMTmgvIUqeOZmVxyMyLEdoP8oz+dYFOeyB7revaDu5ANth/cZ1jRk4hinKJigcOmprmsJ93y2N/j3T+1x4YMzX6QVdyJ4Ba68IljWEACU2wKBqfEYiTnZppmZHU3BxD5V4hvbdwhGQwi11lAzwcRaXo3OMlFFw0wuKam+eDcAUVrNBqKnJqFF3JURQEXoVVEnXIJ2VSQ1VyS7VyLGRbQbUCKTU0zTYezx8fHs+CgaWY2R50M0L5JwXiEt3N3g/sMWd88UlIQ8INiKyMnZ6DYOMwcTuWohgJhCcZDkXxK7ZoPslE9Ms/IhtqdbxP7EYxsOwbMIJpm5xK2JOQOSNH0ZPJfXg0j3FQFa9tlFg8YxtsZTQam2trgPtEcdaEQtPg9K5JPxjSTXB2rmWR5kbvzWS38vhZT8u6B3OXyMpobH5FN2S1tvxJUEv8XmOe8CsV1sMmmf3LVWaYAnqzSmeTZ8JoLGGazeD9jUIeH3CHJPQSgpTla+X0NArzJ0TwrwPDc/z/ieWBzXJWHzfF5DNl0mPQL5w4aIcOcmuJCHdmU6elKGnEgZ3Fk01zmV5IutMn1WshcrW6/AhrZ98nJpvMY8OVByrbLyFxtwXwFArKRncxqt/5sIb+xgMzRPuFXQCMvKzKX5hH/PyQhQn5DwUIe5LcTLJKA/HaCRRIkKyW/HWR6S0zmkfn/G04eeeSRRx555JFHHnnkkUceeeSRRx555JFHHgL+DwW59kBRMHMzAAAAAElFTkSuQmCC;fontFamily=Helvetica;" vertex="1" parent="1">
          <mxGeometry x="2400" y="30" width="80" height="80" as="geometry" />
        </mxCell>
        <mxCell id="H0gXzPtvezBcg68c_Q4e-14" value="" style="group;fontFamily=Helvetica;strokeWidth=0;fontStyle=2" connectable="0" vertex="1" parent="1">
          <mxGeometry x="5090" y="68" width="504" height="150" as="geometry" />
        </mxCell>
        <mxCell id="H0gXzPtvezBcg68c_Q4e-12" value="&lt;font style=&quot;font-size: 30px;&quot;&gt;&lt;i&gt;Recorders:&lt;/i&gt;&lt;/font&gt;" style="rounded=0;whiteSpace=wrap;html=1;dashed=1;dashPattern=1 1;align=left;fontFamily=Helvetica;strokeWidth=0;" vertex="1" parent="H0gXzPtvezBcg68c_Q4e-14">
          <mxGeometry width="504" height="60" as="geometry" />
        </mxCell>
        <mxCell id="H0gXzPtvezBcg68c_Q4e-13" value="&lt;div style=&quot;font-size: 24px; line-height: 150%;&quot;&gt;&lt;i style=&quot;background-color: initial;&quot;&gt;&lt;b&gt;v1&lt;/b&gt;: Malay Patel&lt;/i&gt;&lt;br&gt;&lt;/div&gt;" style="rounded=0;whiteSpace=wrap;html=1;verticalAlign=top;align=left;fontFamily=Helvetica;strokeWidth=0;" vertex="1" parent="H0gXzPtvezBcg68c_Q4e-14">
          <mxGeometry y="60" width="504" height="90" as="geometry" />
        </mxCell>
        <mxCell id="COJAAfJsYOspFRxzFlZO-1" value="Gita /&amp;nbsp;ଗିତା" style="rounded=1;whiteSpace=wrap;html=1;fillColor=#FFDEFC;strokeColor=#ae4132;fontStyle=1;fontSize=14;fontFamily=Helvetica;" vertex="1" parent="1">
          <mxGeometry x="3383" y="660.25" width="155.68" height="45" as="geometry" />
        </mxCell>
        <mxCell id="COJAAfJsYOspFRxzFlZO-2" value="" style="group;fontFamily=Helvetica;" connectable="0" vertex="1" parent="1">
          <mxGeometry x="3823" y="736" width="155.67999999999984" height="96.5" as="geometry" />
        </mxCell>
        <mxCell id="COJAAfJsYOspFRxzFlZO-3" value="Deeptymayi /&amp;nbsp;ଦୀପ୍ତିମୟୀ" style="rounded=1;whiteSpace=wrap;html=1;fillColor=#dae8fc;strokeColor=#6c8ebf;fontStyle=1;fontSize=14;gradientColor=#7ea6e0;fontFamily=Helvetica;" vertex="1" parent="COJAAfJsYOspFRxzFlZO-2">
          <mxGeometry width="155.68" height="49" as="geometry" />
        </mxCell>
        <mxCell id="COJAAfJsYOspFRxzFlZO-4" value="Malay / ମଳୟ" style="rounded=1;whiteSpace=wrap;html=1;fillColor=#ffcd28;strokeColor=#d79b00;fontStyle=1;fontSize=14;gradientColor=#ffa500;fontFamily=Helvetica;" vertex="1" parent="COJAAfJsYOspFRxzFlZO-2">
          <mxGeometry y="49" width="155.67567567567565" height="47.5" as="geometry" />
        </mxCell>
        <mxCell id="COJAAfJsYOspFRxzFlZO-5" value="Alina /&amp;nbsp;ଏଲିନା" style="rounded=1;whiteSpace=wrap;html=1;fillColor=#dae8fc;strokeColor=#6c8ebf;fontStyle=1;fontSize=14;gradientColor=#7ea6e0;fontFamily=Helvetica;" vertex="1" parent="1">
          <mxGeometry x="3646" y="913" width="155.68" height="49" as="geometry" />
        </mxCell>
        <mxCell id="COJAAfJsYOspFRxzFlZO-6" style="edgeStyle=orthogonalEdgeStyle;rounded=0;orthogonalLoop=1;jettySize=auto;html=1;strokeColor=#007FFF;endArrow=none;endFill=0;fontFamily=Helvetica;entryX=0.5;entryY=0;entryDx=0;entryDy=0;" edge="1" parent="1" target="COJAAfJsYOspFRxzFlZO-8">
          <mxGeometry relative="1" as="geometry">
            <mxPoint x="4279.8378378378375" y="785.75" as="sourcePoint" />
            <mxPoint x="4279.874999999999" y="933.5" as="targetPoint" />
          </mxGeometry>
        </mxCell>
        <mxCell id="COJAAfJsYOspFRxzFlZO-7" style="edgeStyle=orthogonalEdgeStyle;rounded=0;orthogonalLoop=1;jettySize=auto;html=1;endArrow=none;endFill=0;strokeColor=#007FFF;fontFamily=Helvetica;" edge="1" parent="1" source="COJAAfJsYOspFRxzFlZO-10">
          <mxGeometry relative="1" as="geometry">
            <mxPoint x="4101.8378378378375" y="933.0000000000002" as="targetPoint" />
          </mxGeometry>
        </mxCell>
        <mxCell id="COJAAfJsYOspFRxzFlZO-8" value="Anshuman /&amp;nbsp;ଅଂଶୁମାନ" style="rounded=1;whiteSpace=wrap;html=1;fillColor=#b0e3e6;strokeColor=#0e8088;fontStyle=1;fontSize=14;fontFamily=Helvetica;" vertex="1" parent="1">
          <mxGeometry x="4203" y="911" width="155.67567567567565" height="47.5" as="geometry" />
        </mxCell>
        <mxCell id="COJAAfJsYOspFRxzFlZO-10" value="Suman / ସୁମନ" style="rounded=1;whiteSpace=wrap;html=1;fillColor=#b0e3e6;strokeColor=#0e8088;fontStyle=1;fontSize=14;fontFamily=Helvetica;" vertex="1" parent="1">
          <mxGeometry x="4024" y="736" width="155.67567567567565" height="47.5" as="geometry" />
        </mxCell>
        <mxCell id="COJAAfJsYOspFRxzFlZO-11" value="Lipsi /&amp;nbsp;ଲିପ୍ସି" style="rounded=1;whiteSpace=wrap;html=1;fillColor=#FFDEFC;strokeColor=#ae4132;fontStyle=1;fontSize=14;fontFamily=Helvetica;" vertex="1" parent="1">
          <mxGeometry x="4023.0043243243244" y="783.5" width="155.67567567567565" height="47.5" as="geometry" />
        </mxCell>
        <mxCell id="COJAAfJsYOspFRxzFlZO-12" value="" style="group;fontFamily=Helvetica;" connectable="0" vertex="1" parent="1">
          <mxGeometry x="4203" y="736" width="155.67999999999984" height="96.5" as="geometry" />
        </mxCell>
        <mxCell id="COJAAfJsYOspFRxzFlZO-13" value="Seema /&amp;nbsp;ସୀମା" style="rounded=1;whiteSpace=wrap;html=1;fillColor=#dae8fc;strokeColor=#6c8ebf;fontStyle=1;fontSize=14;gradientColor=#7ea6e0;fontFamily=Helvetica;" vertex="1" parent="COJAAfJsYOspFRxzFlZO-12">
          <mxGeometry width="155.68" height="49" as="geometry" />
        </mxCell>
        <mxCell id="COJAAfJsYOspFRxzFlZO-14" value="Gagan / ଗଗନ" style="rounded=1;whiteSpace=wrap;html=1;fillColor=#ffcd28;strokeColor=#d79b00;fontStyle=1;fontSize=14;gradientColor=#ffa500;fontFamily=Helvetica;" vertex="1" parent="COJAAfJsYOspFRxzFlZO-12">
          <mxGeometry y="49" width="155.67567567567565" height="47.5" as="geometry" />
        </mxCell>
        <mxCell id="COJAAfJsYOspFRxzFlZO-15" value="Aarvi /&amp;nbsp;ଆର୍ତ୍ତି" style="rounded=1;whiteSpace=wrap;html=1;fillColor=#dae8fc;strokeColor=#6c8ebf;fontStyle=1;fontSize=14;gradientColor=#7ea6e0;fontFamily=Helvetica;" vertex="1" parent="1">
          <mxGeometry x="4024" y="911" width="155.68" height="49" as="geometry" />
        </mxCell>
        <mxCell id="COJAAfJsYOspFRxzFlZO-16" value="Jagnyaseni /&amp;nbsp;ଯଜ୍ଞସେନି" style="rounded=1;whiteSpace=wrap;html=1;fillColor=#dae8fc;strokeColor=#6c8ebf;fontStyle=1;fontSize=14;gradientColor=#7ea6e0;fontFamily=Helvetica;" vertex="1" parent="1">
          <mxGeometry x="2380" y="561" width="155.67567567567565" height="47.5" as="geometry" />
        </mxCell>
        <mxCell id="COJAAfJsYOspFRxzFlZO-17" value="Madhab /&amp;nbsp;ମାଧବ" style="rounded=1;whiteSpace=wrap;html=1;fillColor=#ffcd28;strokeColor=#d79b00;fontStyle=1;fontSize=14;gradientColor=#ffa500;fontFamily=Helvetica;" vertex="1" parent="1">
          <mxGeometry x="2380.0043243243244" y="609.5" width="155.67567567567565" height="47.5" as="geometry" />
        </mxCell>
        <mxCell id="COJAAfJsYOspFRxzFlZO-18" value="Saroj /&amp;nbsp;ସରୋଜ" style="rounded=1;whiteSpace=wrap;html=1;fillColor=#dae8fc;strokeColor=#6c8ebf;fontStyle=1;fontSize=14;gradientColor=#7ea6e0;fontFamily=Helvetica;" vertex="1" parent="1">
          <mxGeometry x="2729.95" y="562" width="155.67567567567565" height="47.5" as="geometry" />
        </mxCell>
        <mxCell id="COJAAfJsYOspFRxzFlZO-19" value="Somnath /&amp;nbsp;ସୋମନାଥ" style="rounded=1;whiteSpace=wrap;html=1;fillColor=#ffcd28;strokeColor=#d79b00;fontStyle=1;fontSize=14;gradientColor=#ffa500;fontFamily=Helvetica;" vertex="1" parent="1">
          <mxGeometry x="2729.9543243243243" y="610.5" width="155.67567567567565" height="47.5" as="geometry" />
        </mxCell>
        <mxCell id="COJAAfJsYOspFRxzFlZO-20" value="Kumudini /&amp;nbsp;କୁମୁଦିନି" style="rounded=1;whiteSpace=wrap;html=1;fillColor=#dae8fc;strokeColor=#6c8ebf;fontStyle=1;fontSize=14;gradientColor=#7ea6e0;fontFamily=Helvetica;" vertex="1" parent="1">
          <mxGeometry x="3046" y="563" width="155.67567567567565" height="47.5" as="geometry" />
        </mxCell>
        <mxCell id="COJAAfJsYOspFRxzFlZO-21" value="Durga /&amp;nbsp;ଦୁର୍ଗା" style="rounded=1;whiteSpace=wrap;html=1;fillColor=#ffcd28;strokeColor=#d79b00;fontStyle=1;fontSize=14;gradientColor=#ffa500;fontFamily=Helvetica;" vertex="1" parent="1">
          <mxGeometry x="3046.0043243243244" y="611.5" width="155.67567567567565" height="47.5" as="geometry" />
        </mxCell>
        <mxCell id="COJAAfJsYOspFRxzFlZO-22" value="" style="group;fontSize=14;fontFamily=Helvetica;" connectable="0" vertex="1" parent="1">
          <mxGeometry x="1749" y="743" width="155.67999999999995" height="95" as="geometry" />
        </mxCell>
        <mxCell id="COJAAfJsYOspFRxzFlZO-23" value="Akash / ଆକାଶ" style="rounded=1;whiteSpace=wrap;html=1;fillColor=#b0e3e6;strokeColor=#0e8088;fontStyle=1;fontSize=14;fontFamily=Helvetica;" vertex="1" parent="COJAAfJsYOspFRxzFlZO-22">
          <mxGeometry width="155.67567567567565" height="47.5" as="geometry" />
        </mxCell>
        <mxCell id="COJAAfJsYOspFRxzFlZO-24" value="Anuskhya /&amp;nbsp;ଅନୁକ୍ଷ୍ୟା" style="rounded=1;whiteSpace=wrap;html=1;fillColor=#FFDEFC;strokeColor=#ae4132;fontStyle=1;fontSize=14;fontFamily=Helvetica;" vertex="1" parent="COJAAfJsYOspFRxzFlZO-22">
          <mxGeometry x="0.004324324324329609" y="47.5" width="155.67567567567565" height="47.5" as="geometry" />
        </mxCell>
        <mxCell id="COJAAfJsYOspFRxzFlZO-25" value="Dhruv /&amp;nbsp;" style="rounded=1;whiteSpace=wrap;html=1;fillColor=#b0e3e6;strokeColor=#0e8088;fontStyle=1;fontSize=14;fontFamily=Helvetica;" vertex="1" parent="1">
          <mxGeometry x="1579" y="936" width="155.67567567567565" height="47.5" as="geometry" />
        </mxCell>
        <mxCell id="COJAAfJsYOspFRxzFlZO-29" style="edgeStyle=orthogonalEdgeStyle;rounded=0;orthogonalLoop=1;jettySize=auto;html=1;endArrow=none;endFill=0;strokeColor=#007FFF;fontFamily=Helvetica;entryX=0.5;entryY=0;entryDx=0;entryDy=0;" edge="1" parent="1" source="COJAAfJsYOspFRxzFlZO-31" target="COJAAfJsYOspFRxzFlZO-41">
          <mxGeometry relative="1" as="geometry">
            <Array as="points">
              <mxPoint x="2358" y="884" />
            </Array>
          </mxGeometry>
        </mxCell>
        <mxCell id="COJAAfJsYOspFRxzFlZO-30" value="" style="group;fontSize=14;fontFamily=Helvetica;" connectable="0" vertex="1" parent="1">
          <mxGeometry x="2293" y="743" width="155.67999999999995" height="95" as="geometry" />
        </mxCell>
        <mxCell id="COJAAfJsYOspFRxzFlZO-31" value="Srikant / ଶ୍ରୀକାନ୍ତ" style="rounded=1;whiteSpace=wrap;html=1;fillColor=#b0e3e6;strokeColor=#0e8088;fontStyle=1;fontSize=14;fontFamily=Helvetica;" vertex="1" parent="COJAAfJsYOspFRxzFlZO-30">
          <mxGeometry width="155.67567567567565" height="47.5" as="geometry" />
        </mxCell>
        <mxCell id="COJAAfJsYOspFRxzFlZO-32" value="Suman /&amp;nbsp;ସୁମନ" style="rounded=1;whiteSpace=wrap;html=1;fillColor=#FFDEFC;strokeColor=#ae4132;fontStyle=1;fontSize=14;fontFamily=Helvetica;" vertex="1" parent="COJAAfJsYOspFRxzFlZO-30">
          <mxGeometry x="0.004324324324329609" y="47.5" width="155.67567567567565" height="47.5" as="geometry" />
        </mxCell>
        <mxCell id="COJAAfJsYOspFRxzFlZO-33" value="" style="group;fontSize=14;fontFamily=Helvetica;" connectable="0" vertex="1" parent="1">
          <mxGeometry x="2463" y="742" width="155.67999999999995" height="95" as="geometry" />
        </mxCell>
        <mxCell id="COJAAfJsYOspFRxzFlZO-34" value="Shrimant / ଶ୍ରିମନ୍ତ" style="rounded=1;whiteSpace=wrap;html=1;fillColor=#b0e3e6;strokeColor=#0e8088;fontStyle=1;fontSize=14;fontFamily=Helvetica;" vertex="1" parent="COJAAfJsYOspFRxzFlZO-33">
          <mxGeometry width="155.67567567567565" height="47.5" as="geometry" />
        </mxCell>
        <mxCell id="COJAAfJsYOspFRxzFlZO-35" value="Chanda /&amp;nbsp;ଚନ୍ଦା&amp;nbsp;" style="rounded=1;whiteSpace=wrap;html=1;fillColor=#FFDEFC;strokeColor=#ae4132;fontStyle=1;fontSize=14;fontFamily=Helvetica;" vertex="1" parent="COJAAfJsYOspFRxzFlZO-33">
          <mxGeometry x="0.004324324324329609" y="47.5" width="155.67567567567565" height="47.5" as="geometry" />
        </mxCell>
        <mxCell id="COJAAfJsYOspFRxzFlZO-36" value="" style="rounded=1;whiteSpace=wrap;html=1;fillColor=#dae8fc;strokeColor=#6c8ebf;fontStyle=1;fontSize=14;gradientColor=#7ea6e0;fontFamily=Helvetica;" vertex="1" parent="1">
          <mxGeometry x="2280" y="992" width="155.67567567567565" height="47.5" as="geometry" />
        </mxCell>
        <mxCell id="COJAAfJsYOspFRxzFlZO-39" value="Harith / ହରିତ" style="rounded=1;whiteSpace=wrap;html=1;fillColor=#b0e3e6;strokeColor=#0e8088;fontStyle=1;fontSize=14;fontFamily=Helvetica;" vertex="1" parent="1">
          <mxGeometry x="2464.33" y="936" width="155.67567567567565" height="47.5" as="geometry" />
        </mxCell>
        <mxCell id="COJAAfJsYOspFRxzFlZO-40" value="Girik / ଗିରିକ" style="rounded=1;whiteSpace=wrap;html=1;fillColor=#b0e3e6;strokeColor=#0e8088;fontStyle=1;fontSize=14;fontFamily=Helvetica;" vertex="1" parent="1">
          <mxGeometry x="2464.33" y="992" width="155.67567567567565" height="47.5" as="geometry" />
        </mxCell>
        <mxCell id="COJAAfJsYOspFRxzFlZO-41" value="Shreyas /&amp;nbsp;ଶ୍ରେୟସ" style="rounded=1;whiteSpace=wrap;html=1;fillColor=#b0e3e6;strokeColor=#0e8088;fontStyle=1;fontSize=14;fontFamily=Helvetica;" vertex="1" parent="1">
          <mxGeometry x="2280" y="936" width="155.67567567567565" height="47.5" as="geometry" />
        </mxCell>
        <mxCell id="COJAAfJsYOspFRxzFlZO-43" value="" style="group;fontSize=14;fontFamily=Helvetica;" connectable="0" vertex="1" parent="1">
          <mxGeometry x="2966" y="738" width="155.67999999999995" height="95" as="geometry" />
        </mxCell>
        <mxCell id="COJAAfJsYOspFRxzFlZO-44" value="Sumit / ସୁମିତ" style="rounded=1;whiteSpace=wrap;html=1;fillColor=#b0e3e6;strokeColor=#0e8088;fontStyle=1;fontSize=14;fontFamily=Helvetica;" vertex="1" parent="COJAAfJsYOspFRxzFlZO-43">
          <mxGeometry width="155.67567567567565" height="47.5" as="geometry" />
        </mxCell>
        <mxCell id="COJAAfJsYOspFRxzFlZO-45" value="Dipanjali /&amp;nbsp;ଦିପାଞ୍ଜଳି" style="rounded=1;whiteSpace=wrap;html=1;fillColor=#FFDEFC;strokeColor=#ae4132;fontStyle=1;fontSize=14;fontFamily=Helvetica;" vertex="1" parent="COJAAfJsYOspFRxzFlZO-43">
          <mxGeometry x="0.004324324324329609" y="47.5" width="155.67567567567565" height="47.5" as="geometry" />
        </mxCell>
        <mxCell id="COJAAfJsYOspFRxzFlZO-48" value="Liza /&amp;nbsp;ଲିଜା" style="rounded=1;whiteSpace=wrap;html=1;fillColor=#dae8fc;strokeColor=#6c8ebf;fontStyle=1;fontSize=14;gradientColor=#7ea6e0;fontFamily=Helvetica;" vertex="1" parent="1">
          <mxGeometry x="3146" y="739" width="155.67567567567565" height="47.5" as="geometry" />
        </mxCell>
        <mxCell id="COJAAfJsYOspFRxzFlZO-49" value="Manas /&amp;nbsp;ମାନସ" style="rounded=1;whiteSpace=wrap;html=1;fillColor=#ffcd28;strokeColor=#d79b00;fontStyle=1;fontSize=14;gradientColor=#ffa500;fontFamily=Helvetica;" vertex="1" parent="1">
          <mxGeometry x="3146.0043243243244" y="787.5" width="155.67567567567565" height="47.5" as="geometry" />
        </mxCell>
        <mxCell id="COJAAfJsYOspFRxzFlZO-50" value="" style="group;fontSize=14;fontFamily=Helvetica;" connectable="0" vertex="1" parent="1">
          <mxGeometry x="2730" y="741" width="155.67999999999995" height="95" as="geometry" />
        </mxCell>
        <mxCell id="COJAAfJsYOspFRxzFlZO-51" value="Asish / ଆଶିଷ" style="rounded=1;whiteSpace=wrap;html=1;fillColor=#b0e3e6;strokeColor=#0e8088;fontStyle=1;fontSize=14;fontFamily=Helvetica;" vertex="1" parent="COJAAfJsYOspFRxzFlZO-50">
          <mxGeometry width="155.67567567567565" height="47.5" as="geometry" />
        </mxCell>
        <mxCell id="COJAAfJsYOspFRxzFlZO-52" value="Anchal /&amp;nbsp;ଆଂଚଳ" style="rounded=1;whiteSpace=wrap;html=1;fillColor=#FFDEFC;strokeColor=#ae4132;fontStyle=1;fontSize=14;fontFamily=Helvetica;" vertex="1" parent="COJAAfJsYOspFRxzFlZO-50">
          <mxGeometry x="0.004324324324329609" y="47.5" width="155.67567567567565" height="47.5" as="geometry" />
        </mxCell>
        <mxCell id="COJAAfJsYOspFRxzFlZO-57" value="Shovit / ଶୋଭିତ" style="rounded=1;whiteSpace=wrap;html=1;fillColor=#b0e3e6;strokeColor=#0e8088;fontStyle=1;fontSize=14;fontFamily=Helvetica;" vertex="1" parent="1">
          <mxGeometry x="3146" y="936" width="155.67567567567565" height="47.5" as="geometry" />
        </mxCell>
      </root>
    </mxGraphModel>
  </diagram>
</mxfile>
